<svg width="32" height="32" viewBox="0 0 32 32" fill="none" xmlns="http://www.w3.org/2000/svg">
<g clip-path="url(#clip0_1315_1666)">
<path d="M16 32C24.8366 32 32 24.8366 32 16C32 7.16344 24.8366 0 16 0C7.16344 0 0 7.16344 0 16C0 24.8366 7.16344 32 16 32Z" fill="white"/>
<path d="M16 8C11.5789 8 8 11.3179 8 15.4084C8.01087 16.5361 8.28626 17.6455 8.80402 18.6474C9.32178 19.6493 10.0675 20.5157 10.9811 21.1768V24L13.7053 22.5074C14.4528 22.7131 15.2247 22.8172 16 22.8168C20.4211 22.8168 24 19.5011 24 15.4084C24 11.3158 20.4211 8 16 8ZM16.7937 17.9747L14.7579 15.8042L10.7832 17.9768L15.1579 13.3347L17.2463 15.5074L21.1705 13.3347L16.7937 17.9747Z" fill="#BE252B"/>
</g>
<defs>
<clipPath id="clip0_1315_1666">
<rect width="32" height="32" fill="white"/>
</clipPath>
</defs>
</svg>
