<svg width="32" height="32" viewBox="0 0 32 32" fill="none" xmlns="http://www.w3.org/2000/svg">
<g clip-path="url(#clip0_1315_1661)">
<path d="M16 32C24.8366 32 32 24.8366 32 16C32 7.16344 24.8366 0 16 0C7.16344 0 0 7.16344 0 16C0 24.8366 7.16344 32 16 32Z" fill="white"/>
<path d="M20.0551 14.4863L19.7898 16.7137C19.7784 16.8171 19.729 16.9127 19.6513 16.9819C19.5735 17.0511 19.4729 17.0891 19.3688 17.0884H17.053V23.6989C17.0535 23.7779 17.0229 23.8538 16.9677 23.9102C16.9124 23.9666 16.8372 23.9989 16.7582 24H14.3982C14.359 23.9995 14.3202 23.9912 14.2842 23.9756C14.2481 23.9601 14.2155 23.9376 14.1881 23.9095C14.1607 23.8813 14.1392 23.8481 14.1246 23.8116C14.1101 23.7751 14.103 23.7361 14.1035 23.6968L14.1161 17.0884H12.3625C12.2508 17.0884 12.1437 17.0441 12.0647 16.9651C11.9858 16.8861 11.9414 16.779 11.9414 16.6674V14.44C11.9414 14.3283 11.9858 14.2212 12.0647 14.1423C12.1437 14.0633 12.2508 14.0189 12.3625 14.0189H14.1056V11.8589C14.1056 9.36 15.5919 8 17.7688 8H19.5519C19.6636 8 19.7707 8.04436 19.8497 8.12332C19.9286 8.20229 19.973 8.30938 19.973 8.42105V10.2968C19.973 10.4085 19.9286 10.5156 19.8497 10.5946C19.7707 10.6735 19.6636 10.7179 19.5519 10.7179H18.4593C17.2761 10.7368 17.053 11.3032 17.053 12.1495V14.0126H19.6446C19.7037 14.0136 19.7619 14.0271 19.8155 14.0521C19.8691 14.0771 19.9168 14.1132 19.9555 14.1579C19.9943 14.2025 20.0231 14.2549 20.0403 14.3115C20.0574 14.3681 20.0625 14.4276 20.0551 14.4863Z" fill="#BE252B"/>
</g>
<defs>
<clipPath id="clip0_1315_1661">
<rect width="32" height="32" fill="white"/>
</clipPath>
</defs>
</svg>
