<svg width="32" height="32" viewBox="0 0 32 32" fill="none" xmlns="http://www.w3.org/2000/svg">
<g clip-path="url(#clip0_1315_1676)">
<path d="M16 32C24.8366 32 32 24.8366 32 16C32 7.16344 24.8366 0 16 0C7.16344 0 0 7.16344 0 16C0 24.8366 7.16344 32 16 32Z" fill="white"/>
<path d="M19.2337 8H12.7663C11.5027 8.00167 10.2914 8.50437 9.39787 9.39787C8.50437 10.2914 8.00167 11.5027 8 12.7663V19.2337C8.00167 20.4973 8.50437 21.7086 9.39787 22.6021C10.2914 23.4956 11.5027 23.9983 12.7663 24H19.2337C20.4974 23.9989 21.7091 23.4964 22.6027 22.6027C23.4964 21.7091 23.9989 20.4974 24 19.2337V12.7663C23.9983 11.5027 23.4956 10.2914 22.6021 9.39787C21.7086 8.50437 20.4973 8.00167 19.2337 8ZM22.3916 19.2337C22.3916 20.0712 22.0589 20.8744 21.4667 21.4667C20.8744 22.0589 20.0712 22.3916 19.2337 22.3916H12.7663C11.9288 22.3916 11.1256 22.0589 10.5333 21.4667C9.94113 20.8744 9.60842 20.0712 9.60842 19.2337V12.7663C9.60842 11.9288 9.94113 11.1256 10.5333 10.5333C11.1256 9.94113 11.9288 9.60842 12.7663 9.60842H19.2337C20.0712 9.60842 20.8744 9.94113 21.4667 10.5333C22.0589 11.1256 22.3916 11.9288 22.3916 12.7663V19.2337Z" fill="#BE252B"/>
<path d="M16.0004 11.8633C15.1816 11.8629 14.3811 12.1053 13.7002 12.5599C13.0192 13.0146 12.4884 13.661 12.1748 14.4174C11.8613 15.1737 11.7792 16.0061 11.9388 16.8092C12.0984 17.6123 12.4927 18.3499 13.0716 18.9289C13.6506 19.5079 14.3883 19.9021 15.1914 20.0617C15.9944 20.2214 16.8268 20.1392 17.5832 19.8257C18.3396 19.5122 18.986 18.9814 19.4406 18.3004C19.8952 17.6194 20.1377 16.8189 20.1373 16.0001C20.1362 14.9033 19.7 13.8517 18.9244 13.0762C18.1488 12.3006 17.0972 11.8644 16.0004 11.8633ZM16.0004 18.5264C15.5008 18.5264 15.0123 18.3783 14.5969 18.1007C14.1814 17.8231 13.8576 17.4285 13.6664 16.9669C13.4752 16.5053 13.4252 15.9973 13.5227 15.5073C13.6201 15.0172 13.8607 14.5671 14.2141 14.2137C14.5674 13.8604 15.0175 13.6198 15.5076 13.5224C15.9976 13.4249 16.5056 13.4749 16.9672 13.6661C17.4288 13.8573 17.8234 14.1811 18.101 14.5966C18.3786 15.012 18.5267 15.5005 18.5267 16.0001C18.5267 16.6701 18.2606 17.3127 17.7868 17.7865C17.313 18.2603 16.6704 18.5264 16.0004 18.5264Z" fill="#BE252B"/>
<path d="M20.1618 12.8862C20.7269 12.8862 21.185 12.4281 21.185 11.863C21.185 11.2979 20.7269 10.8398 20.1618 10.8398C19.5968 10.8398 19.1387 11.2979 19.1387 11.863C19.1387 12.4281 19.5968 12.8862 20.1618 12.8862Z" fill="#BE252B"/>
</g>
<defs>
<clipPath id="clip0_1315_1676">
<rect width="32" height="32" fill="white"/>
</clipPath>
</defs>
</svg>
