<svg width="25" height="24" viewBox="0 0 25 24" fill="none" xmlns="http://www.w3.org/2000/svg">
<g clip-path="url(#clip0_834_13811)">
<path d="M12.5 7.35938C9.26914 7.35938 6.64062 9.98789 6.64062 13.2188C6.64062 16.4496 9.26914 19.0781 12.5 19.0781C15.7309 19.0781 18.3594 16.4496 18.3594 13.2188C18.3594 9.98789 15.7309 7.35938 12.5 7.35938ZM12.5 17.2031C10.303 17.2031 8.51562 15.4157 8.51562 13.2188C8.51562 11.0218 10.303 9.23438 12.5 9.23438C14.697 9.23438 16.4844 11.0218 16.4844 13.2188C16.4844 15.4157 14.697 17.2031 12.5 17.2031Z" fill="white"/>
<path d="M21.6875 4.54688H18.2387C18.1295 4.54688 18.0311 4.4873 17.9805 4.39092L17.0263 2.38594C17.0237 2.38045 17.0211 2.37502 17.0183 2.36958C16.649 1.63083 15.9064 1.17188 15.0804 1.17188H9.98638C9.16039 1.17188 8.4178 1.63083 8.04847 2.36962C8.0457 2.37506 8.04308 2.3805 8.04045 2.38598L7.08627 4.39106C7.03564 4.4873 6.9373 4.54688 6.82812 4.54688H3.3125C1.76169 4.54688 0.5 5.80856 0.5 7.35938V20.0156C0.5 21.5664 1.76169 22.8281 3.3125 22.8281H21.6875C23.2383 22.8281 24.5 21.5664 24.5 20.0156V7.35938C24.5 5.80856 23.2383 4.54688 21.6875 4.54688ZM22.625 20.0156C22.625 20.5325 22.2044 20.9531 21.6875 20.9531H3.3125C2.79556 20.9531 2.375 20.5325 2.375 20.0156V7.35938C2.375 6.84244 2.79556 6.42188 3.3125 6.42188H6.82812C7.65406 6.42188 8.39666 5.96297 8.76603 5.22422C8.7688 5.21878 8.77142 5.2133 8.77409 5.20781L9.72828 3.20273C9.77886 3.10645 9.8772 3.04688 9.98638 3.04688H15.0804C15.1896 3.04688 15.2879 3.10645 15.3385 3.20269L16.2927 5.20777C16.2954 5.21325 16.298 5.21873 16.3008 5.22417C16.6701 5.96292 17.4127 6.42183 18.2387 6.42183H21.6875C22.2044 6.42183 22.625 6.84239 22.625 7.35933V20.0156Z" fill="white"/>
<path d="M20.75 8.29688H18.875V10.1719H20.75V8.29688Z" fill="white"/>
</g>
<defs>
<clipPath id="clip0_834_13811">
<rect width="24" height="24" fill="white" transform="translate(0.5)"/>
</clipPath>
</defs>
</svg>
