<svg width="17" height="18" viewBox="0 0 17 18" fill="none" xmlns="http://www.w3.org/2000/svg">
<path d="M11.2118 8.34627C12.3635 7.50628 13.1136 6.14686 13.1136 4.61538C13.1136 2.07046 11.0431 0 8.49818 0C5.95326 0 3.8828 2.07046 3.8828 4.61538C3.8828 6.14686 4.63279 7.50628 5.78458 8.34627C2.92145 9.44191 0.882812 12.2179 0.882812 15.4615C0.882812 16.8613 2.02156 18 3.42127 18H13.5751C14.9748 18 16.1136 16.8613 16.1136 15.4615C16.1136 12.2179 14.0749 9.44191 11.2118 8.34627ZM5.26743 4.61538C5.26743 2.83395 6.71675 1.38463 8.49818 1.38463C10.2796 1.38463 11.7289 2.83395 11.7289 4.61538C11.7289 6.39682 10.2796 7.84617 8.49818 7.84617C6.71675 7.84617 5.26743 6.39682 5.26743 4.61538ZM13.5751 16.6154H3.42127C2.78505 16.6154 2.26744 16.0978 2.26744 15.4615C2.26744 12.0258 5.0625 9.23073 8.49822 9.23073C11.9339 9.23073 14.729 12.0258 14.729 15.4615C14.729 16.0978 14.2114 16.6154 13.5751 16.6154Z" fill="white"/>
</svg>
