<svg width="35" height="35" viewBox="0 0 35 35" fill="none" xmlns="http://www.w3.org/2000/svg">
<path d="M24.9127 31.4329L31.4414 28.2548C30.5439 26.497 29.8346 24.6548 29.3279 22.7423C28.8212 20.8157 28.5751 18.5798 28.5751 16.0204V8.55322H17.6167V16.1048C17.6167 17.8345 17.9642 19.6485 18.659 21.561C19.3539 23.4735 20.2514 25.2876 21.3516 27.0173C22.4517 28.747 23.6388 30.2235 24.9127 31.4329ZM10.8419 31.4329L17.3706 28.2548C16.4731 26.497 15.7638 24.6688 15.2571 22.7423C14.7505 20.8157 14.5044 18.5798 14.5044 16.0204V8.55322H3.54596V16.1048C3.54596 17.8345 3.89338 19.6485 4.58823 21.561C5.28309 23.4735 6.18061 25.2876 7.28079 27.0173C8.38097 28.747 9.56801 30.2235 10.8419 31.4329Z" fill="#BE252B"/>
</svg>
