<svg width="12" height="12" viewBox="0 0 12 12" fill="none" xmlns="http://www.w3.org/2000/svg">
<path d="M7.77609 6.49805L6.77107 7.50647C6.36352 7.91545 5.64642 7.92427 5.23005 7.50647L4.22498 6.49805L0.615234 10.1195C0.749602 10.1816 0.89775 10.2187 1.05525 10.2187H10.9459C11.1034 10.2187 11.2515 10.1817 11.3858 10.1195L7.77609 6.49805Z" fill="#4D4D4D"/>
<path d="M10.9458 1.78125H1.0552C0.897703 1.78125 0.749555 1.81833 0.615234 1.88046L4.47251 5.75053C4.47277 5.75079 4.47307 5.75084 4.47333 5.75109C4.47359 5.75135 4.47363 5.7517 4.47363 5.7517L5.72784 7.01006C5.86106 7.14328 6.14002 7.14328 6.27323 7.01006L7.52719 5.75191C7.52719 5.75191 7.52749 5.75135 7.52775 5.75109C7.52775 5.75109 7.52831 5.75079 7.52857 5.75053L11.3857 1.88044C11.2514 1.81828 11.1033 1.78125 10.9458 1.78125Z" fill="#4D4D4D"/>
<path d="M0.112172 2.37207C0.0426562 2.51265 0 2.6687 0 2.83585V9.16398C0 9.33113 0.0426094 9.48718 0.112148 9.62776L3.72816 6.00003L0.112172 2.37207Z" fill="#4D4D4D"/>
<path d="M11.8874 2.37207L8.27148 6.00008L11.8874 9.62785C11.957 9.48727 11.9996 9.33123 11.9996 9.16402V2.8359C11.9996 2.6687 11.957 2.51265 11.8874 2.37207Z" fill="#4D4D4D"/>
</svg>
