<svg width="12" height="12" viewBox="0 0 12 12" fill="none" xmlns="http://www.w3.org/2000/svg">
<path d="M6.00024 0C3.60387 0 1.6543 1.94958 1.6543 4.34592C1.6543 7.31986 5.54349 11.6858 5.70908 11.8702C5.86461 12.0434 6.13616 12.0431 6.29141 11.8702C6.45699 11.6858 10.3462 7.31986 10.3462 4.34592C10.3461 1.94958 8.39659 0 6.00024 0ZM6.00024 6.53248C4.79457 6.53248 3.81371 5.55159 3.81371 4.34592C3.81371 3.14025 4.79459 2.15939 6.00024 2.15939C7.20589 2.15939 8.18675 3.14027 8.18675 4.34595C8.18675 5.55162 7.20589 6.53248 6.00024 6.53248Z" fill="#4D4D4D"/>
</svg>
