<svg width="68" height="58" viewBox="0 0 68 58" fill="none" xmlns="http://www.w3.org/2000/svg">
<g clip-path="url(#clip0_818_3891)">
<path d="M52 57.582L67.8555 49.6367C65.6758 45.2422 63.9531 40.6367 62.7227 35.8555C61.4922 31.0391 60.8945 25.4492 60.8945 19.0508V0.382812H34.2812V19.2617C34.2812 23.5859 35.125 28.1211 36.8125 32.9023C38.5 37.6836 40.6797 42.2187 43.3516 46.543C46.0234 50.8672 48.9062 54.5586 52 57.582ZM17.8281 57.582L33.6836 49.6367C31.5039 45.2422 29.7812 40.6719 28.5508 35.8555C27.3203 31.0391 26.7227 25.4492 26.7227 19.0508V0.382812H0.109375V19.2617C0.109375 23.5859 0.953117 28.1211 2.64062 32.9023C4.32812 37.6836 6.50781 42.2187 9.17968 46.543C11.8516 50.8672 14.7344 54.5586 17.8281 57.582Z" fill="#BE252B"/>
</g>
<defs>
<clipPath id="clip0_818_3891">
<rect width="68" height="58" fill="white" transform="matrix(-1 0 0 1 68 0)"/>
</clipPath>
</defs>
</svg>
