<svg width="24" height="24" viewBox="0 0 24 24" fill="none" xmlns="http://www.w3.org/2000/svg">
<path d="M20.25 1.875H19.0312V0.9375C19.0312 0.419719 18.6115 0 18.0938 0C17.576 0 17.1562 0.419719 17.1562 0.9375V1.875H12.8906V0.9375C12.8906 0.419719 12.4709 0 11.9531 0C11.4353 0 11.0156 0.419719 11.0156 0.9375V1.875H6.79688V0.9375C6.79688 0.419719 6.37716 0 5.85938 0C5.34159 0 4.92188 0.419719 4.92188 0.9375V1.875H3.75C1.68225 1.875 0 3.55725 0 5.625V20.25C0 22.3177 1.68225 24 3.75 24H10.9219C11.4397 24 11.8594 23.5803 11.8594 23.0625C11.8594 22.5447 11.4397 22.125 10.9219 22.125H3.75C2.71613 22.125 1.875 21.2839 1.875 20.25V5.625C1.875 4.59113 2.71613 3.75 3.75 3.75H4.92188V4.6875C4.92188 5.20528 5.34159 5.625 5.85938 5.625C6.37716 5.625 6.79688 5.20528 6.79688 4.6875V3.75H11.0156V4.6875C11.0156 5.20528 11.4353 5.625 11.9531 5.625C12.4709 5.625 12.8906 5.20528 12.8906 4.6875V3.75H17.1562V4.6875C17.1562 5.20528 17.576 5.625 18.0938 5.625C18.6115 5.625 19.0312 5.20528 19.0312 4.6875V3.75H20.25C21.2839 3.75 22.125 4.59113 22.125 5.625V10.9688C22.125 11.4865 22.5447 11.9062 23.0625 11.9062C23.5803 11.9062 24 11.4865 24 10.9688V5.625C24 3.55725 22.3177 1.875 20.25 1.875Z" fill="#BE252B"/>
<path d="M18.3281 12.6562C15.2006 12.6562 12.6562 15.2006 12.6562 18.3281C12.6562 21.4556 15.2006 24 18.3281 24C21.4556 24 24 21.4556 24 18.3281C24 15.2006 21.4556 12.6562 18.3281 12.6562ZM18.3281 22.125C16.2345 22.125 14.5312 20.4218 14.5312 18.3281C14.5312 16.2345 16.2345 14.5312 18.3281 14.5312C20.4217 14.5312 22.125 16.2345 22.125 18.3281C22.125 20.4218 20.4217 22.125 18.3281 22.125Z" fill="#BE252B"/>
<path d="M19.6875 17.3906H19.2656V16.4062C19.2656 15.8885 18.8459 15.4688 18.3281 15.4688C17.8103 15.4688 17.3906 15.8885 17.3906 16.4062V18.3281C17.3906 18.8459 17.8103 19.2656 18.3281 19.2656H19.6875C20.2053 19.2656 20.625 18.8459 20.625 18.3281C20.625 17.8103 20.2053 17.3906 19.6875 17.3906Z" fill="#BE252B"/>
</svg>
