<svg width="24" height="24" viewBox="0 0 24 24" fill="none" xmlns="http://www.w3.org/2000/svg">
<g clip-path="url(#clip0_791_4081)">
<path d="M23.3135 18.827C24.2274 19.7409 24.2274 21.2277 23.3135 22.1416C23.3123 22.1431 23.3108 22.1444 23.3093 22.1458L21.7057 23.7295C21.523 23.9099 21.2849 24 21.0471 24C20.805 24 20.5633 23.9069 20.3798 23.7213C20.0162 23.3529 20.0198 22.7592 20.3882 22.3954L21.3265 21.4687H6.28128C4.21348 21.4687 2.53129 19.7865 2.53129 17.7187V2.65081L1.59599 3.57366C1.2274 3.93731 0.633771 3.93328 0.270125 3.56469C-0.0935222 3.1961 -0.0894938 2.60247 0.279097 2.23883L1.86296 0.67639C2.77427 -0.222656 4.25705 -0.222656 5.16837 0.67639L6.75223 2.23883C7.12082 2.60247 7.12485 3.1961 6.7612 3.56469C6.57773 3.75054 6.33585 3.84374 6.09378 3.84374C5.85593 3.84374 5.61808 3.75384 5.43534 3.57366L4.40629 2.55834V17.7187C4.40629 18.7525 5.24747 19.5937 6.28128 19.5937H21.4215L20.3882 18.5733C20.0198 18.2094 20.016 17.6158 20.3798 17.2474C20.7437 16.8792 21.3373 16.8753 21.7057 17.2392L23.3093 18.8228C23.3108 18.8243 23.3123 18.8256 23.3135 18.827ZM21.1875 0H9.0469C8.5278 0 8.10757 0.421874 8.1094 0.940977C8.11142 1.45733 8.53055 1.875 9.0469 1.875H21.1875C21.7053 1.875 22.125 2.29467 22.125 2.81249V15C22.125 15.5163 22.5427 15.9356 23.059 15.9375C23.5781 15.9393 24 15.5191 24 15V2.81249C24 1.25921 22.7408 0 21.1875 0ZM13.7813 16.073C14.2991 16.073 14.7188 15.6533 14.7188 15.1355V10.9629C14.7188 9.54124 13.5623 8.38475 12.1406 8.38475C11.5179 8.38475 10.9461 8.60667 10.5 8.97563C10.054 8.60667 9.48214 8.38475 8.8594 8.38475C8.5018 8.38475 8.16086 8.45817 7.85104 8.59038C7.68423 8.43767 7.46268 8.34373 7.21878 8.34373C6.70096 8.34373 6.28128 8.76341 6.28128 9.28123V15.1406C6.28128 15.6584 6.70096 16.0781 7.21878 16.0781C7.7366 16.0781 8.15628 15.6584 8.15628 15.1406V10.9629C8.15628 10.5752 8.47177 10.2597 8.8594 10.2597C9.24704 10.2597 9.56253 10.5752 9.56253 10.9629V15.1406C9.56253 15.6584 9.9822 16.0781 10.5 16.0781C11.0178 16.0781 11.4375 15.6584 11.4375 15.1406V10.9629C11.4375 10.5752 11.753 10.2597 12.1406 10.2597C12.5283 10.2597 12.8438 10.5752 12.8438 10.9629V15.1355C12.8438 15.6533 13.2634 16.073 13.7813 16.073ZM18.0352 5.06249C18.0302 5.06249 18.0255 5.06322 18.0205 5.06322C18.0158 5.06322 18.011 5.06249 18.0061 5.06249C16.8139 5.06249 15.8438 6.03368 15.8438 7.22734C15.8438 7.74498 16.2634 8.16484 16.7813 8.16484C17.2991 8.16484 17.7188 7.74498 17.7188 7.22734C17.7188 7.07024 17.8504 6.93749 18.0061 6.93749C18.011 6.93749 18.0158 6.93675 18.0207 6.93675C18.0255 6.93675 18.0302 6.93749 18.0352 6.93749C18.1844 6.93749 18.3115 7.05943 18.3217 7.20793C18.3032 7.2766 18.1595 7.70122 17.2612 8.68944C16.704 9.30211 16.1565 9.80107 16.1512 9.80583C15.8643 10.0662 15.7672 10.4764 15.9068 10.8376C16.0463 11.1991 16.3938 11.4375 16.7813 11.4375H19.3125C19.8303 11.4375 20.25 11.0178 20.25 10.5C20.25 9.98216 19.8303 9.56248 19.3125 9.56248H18.9901C19.8225 8.5825 20.1975 7.85319 20.1975 7.22734C20.1975 6.03368 19.2274 5.06249 18.0352 5.06249Z" fill="#BE252B"/>
</g>
<defs>
<clipPath id="clip0_791_4081">
<rect width="24" height="24" fill="white"/>
</clipPath>
</defs>
</svg>
