<svg width="24" height="24" viewBox="0 0 24 24" fill="none" xmlns="http://www.w3.org/2000/svg">
<g clip-path="url(#clip0_791_4143)">
<path d="M23.7253 11.3371C23.0962 10.708 13.1241 0.7359 12.6628 0.274658C12.2968 -0.0915527 11.7032 -0.0915527 11.3371 0.274658C10.8327 0.779113 0.893371 10.7183 0.274658 11.3371C-0.0915527 11.7032 -0.0915527 12.2968 0.274658 12.663C0.640686 13.029 1.23431 13.029 1.60034 12.663L1.84369 12.4197V23.0625C1.84369 23.5803 2.26355 24 2.78119 24H21.2188C21.7364 24 22.1563 23.5803 22.1563 23.0625V12.4197L22.3995 12.663C22.7657 13.029 23.3593 13.029 23.7253 12.663C24.0915 12.2968 24.0915 11.7032 23.7253 11.3371ZM14.75 22.125H9.25011V16.625H14.75V22.125ZM20.2813 22.125H16.625V15.6875C16.625 15.1697 16.2054 14.75 15.6875 14.75H8.31262C7.79479 14.75 7.37512 15.1697 7.37512 15.6875V22.125H3.71887V10.5447L12 2.26336L20.2813 10.5447V22.125Z" fill="#BE252B"/>
</g>
<defs>
<clipPath id="clip0_791_4143">
<rect width="24" height="24" fill="white"/>
</clipPath>
</defs>
</svg>
