<svg width="24" height="24" viewBox="0 0 24 24" fill="none" xmlns="http://www.w3.org/2000/svg">
<g clip-path="url(#clip0_826_4377)">
<path d="M23.7254 22.3993L16.9542 15.6281C20.0392 11.8746 19.8293 6.30259 16.3237 2.797C12.5943 -0.932332 6.52632 -0.932332 2.797 2.797C-0.932332 6.52632 -0.932332 12.5943 2.797 16.3237C6.30165 19.8283 11.8729 20.0405 15.6281 16.9542L22.3993 23.7254C22.7655 24.0916 23.3591 24.0916 23.7253 23.7254C24.0916 23.3591 24.0916 22.7655 23.7254 22.3993ZM14.9976 14.9976C11.9995 17.9957 7.12121 17.9957 4.12309 14.9976C1.12496 11.9994 1.12496 7.12117 4.12309 4.12304C7.12112 1.12506 11.9994 1.12482 14.9976 4.12304C17.9957 7.12117 17.9957 11.9994 14.9976 14.9976Z" fill="white"/>
<path d="M14.1512 8.62262H10.4977V4.96918C10.4977 4.45131 10.0779 4.03149 9.56006 4.03149C9.04219 4.03149 8.62238 4.45131 8.62238 4.96918V8.62262H4.96894C4.45106 8.62262 4.03125 9.04243 4.03125 9.56031C4.03125 10.0782 4.45106 10.498 4.96894 10.498H8.62238V14.1514C8.62238 14.6693 9.04219 15.0891 9.56006 15.0891C10.0779 15.0891 10.4977 14.6693 10.4977 14.1514V10.498H14.1512C14.6691 10.498 15.0889 10.0782 15.0889 9.56031C15.0889 9.04243 14.6691 8.62262 14.1512 8.62262Z" fill="white"/>
</g>
<defs>
<clipPath id="clip0_826_4377">
<rect width="24" height="24" fill="white"/>
</clipPath>
</defs>
</svg>
