<svg width="24" height="24" viewBox="0 0 24 24" fill="none" xmlns="http://www.w3.org/2000/svg">
<g clip-path="url(#clip0_826_4384)">
<path d="M24 19.5V23.0625C24 23.5803 23.5803 24 23.0625 24H0.9375C0.419678 24 0 23.5803 0 23.0625V19.5C0 18.9822 0.419678 18.5625 0.9375 18.5625C1.45532 18.5625 1.875 18.9822 1.875 19.5V22.125H22.125V19.5C22.125 18.9822 22.5447 18.5625 23.0625 18.5625C23.5803 18.5625 24 18.9822 24 19.5ZM11.337 20.1628C11.6975 20.5236 12.2941 20.5318 12.663 20.1628L17.9661 14.8596C18.3323 14.4935 18.3323 13.8999 17.9661 13.5339C17.6001 13.1677 17.0065 13.1677 16.6404 13.5339L12.9375 17.2366V0.9375C12.9375 0.419678 12.5178 0 12 0C11.4822 0 11.0625 0.419678 11.0625 0.9375V17.2366L7.35956 13.5339C6.99353 13.1677 6.3999 13.1677 6.03387 13.5339C5.66766 13.8999 5.66766 14.4935 6.03387 14.8596L11.337 20.1628Z" fill="white"/>
</g>
<defs>
<clipPath id="clip0_826_4384">
<rect width="24" height="24" fill="white"/>
</clipPath>
</defs>
</svg>
