<svg width="121" height="196" viewBox="0 0 121 196" fill="none" xmlns="http://www.w3.org/2000/svg">
<path d="M120.171 160.79C120.171 162.483 119.187 164.175 116.938 165.444L68.7268 193.364C66.4779 194.633 63.3856 195.338 60.1527 195.197C56.6388 195.197 52.9842 194.21 50.1731 192.518L4.63208 166.149C1.8209 164.457 0.274762 162.342 0.134203 160.367C-0.00635533 158.534 0.977556 156.701 3.36705 155.432L51.5786 127.512C53.8276 126.243 56.9199 125.538 60.1527 125.679C63.6667 125.82 67.3212 126.666 70.1324 128.358L115.673 154.727C118.625 156.56 120.171 158.675 120.171 160.79Z" fill="#EED7AA"/>
<path d="M60.1513 60.9551V195.197C56.6374 195.197 52.9828 194.21 50.1717 192.518L4.63069 166.149C1.81951 164.456 0.273371 162.341 0.132812 160.367V60.9551H60.1513Z" fill="#CACDE0"/>
<path d="M120.171 60.9551V160.79C120.171 162.482 119.187 164.174 116.938 165.444L68.7264 193.364C66.4775 194.633 63.3852 195.338 60.1523 195.197V60.9551H120.171Z" fill="white"/>
<path d="M116.938 66.0321L68.7266 93.9521C63.9476 96.7723 55.6546 96.3493 50.1729 93.247L4.63187 66.7372C-0.849919 63.4939 -1.41215 58.6996 3.36684 56.0204L51.5784 28.1004C56.3574 25.2802 64.6504 25.7032 70.1322 28.8054L115.673 55.1743C121.014 58.4176 121.717 63.2119 116.938 66.0321Z" fill="#BE252B"/>
<path d="M99.7885 64.4811L66.0544 83.9404C62.681 85.9146 56.9181 85.6326 52.9825 83.3764L21.2162 65.0451C17.4212 62.7889 16.9995 59.4047 20.2323 57.5716L53.9664 38.1122C57.3398 36.138 63.1027 36.42 67.0383 38.6762L98.9451 57.1485C102.74 59.2637 103.162 62.6479 99.7885 64.4811Z" fill="#951D22"/>
<path d="M108.364 138.229L74.63 157.688C71.2566 159.662 68.5859 157.547 68.5859 153.176V116.231C68.5859 111.719 71.2566 106.642 74.63 104.668L108.364 85.2087C111.737 83.2346 114.408 85.3497 114.408 89.7211V126.666C114.408 131.037 111.737 136.254 108.364 138.229Z" fill="#BE252B"/>
<path d="M89.2875 130.687C88.3299 131.242 87.4646 131.463 86.6916 131.351C85.9301 131.232 85.3302 130.766 84.8918 129.953C84.4533 129.127 84.2341 127.948 84.2341 126.414C84.2341 124.881 84.4533 123.454 84.8918 122.133C85.3302 120.8 85.9301 119.632 86.6916 118.631C87.4646 117.623 88.3299 116.842 89.2875 116.287C90.2566 115.726 91.1219 115.505 91.8834 115.624C92.6449 115.743 93.2448 116.215 93.6832 117.041C94.1332 117.847 94.3582 119.017 94.3582 120.55C94.3582 122.084 94.1332 123.521 93.6832 124.861C93.2448 126.182 92.6449 127.343 91.8834 128.344C91.1219 129.345 90.2566 130.126 89.2875 130.687ZM89.2875 128.427C89.8528 128.1 90.3432 127.643 90.7585 127.055C91.1739 126.455 91.4969 125.721 91.7277 124.854C91.9699 123.98 92.0911 122.983 92.0911 121.863C92.0911 120.73 91.9699 119.874 91.7277 119.294C91.4969 118.694 91.1739 118.341 90.7585 118.235C90.3432 118.116 89.8528 118.22 89.2875 118.547C88.7452 118.861 88.2607 119.322 87.8338 119.929C87.4184 120.517 87.0896 121.247 86.8473 122.121C86.6166 122.974 86.5012 123.968 86.5012 125.101C86.5012 126.221 86.6166 127.081 86.8473 127.681C87.0896 128.274 87.4184 128.63 87.8338 128.749C88.2607 128.849 88.7452 128.741 89.2875 128.427ZM97.7999 125.557V112.557L98.7864 113.165L95.2386 115.22V113.04L100.05 110.254V124.254L97.7999 125.557Z" fill="white"/>
<path d="M102.038 40.3679C102.32 41.778 101.617 43.3291 99.7895 44.3162L66.0554 63.7756C64.5093 64.7626 62.2603 65.1857 60.0114 65.0447C57.6219 65.0447 55.0918 64.3396 52.9835 63.2115L21.2172 44.8802C19.1088 43.6111 17.9844 42.06 17.9844 40.6499C17.9844 40.5089 17.9844 40.5089 17.9844 40.3679V34.4455H25.2934L54.1079 17.8063C55.6541 16.8192 57.903 16.3962 60.152 16.5372C62.5414 16.5372 65.0715 17.2422 67.1799 18.3703L94.8699 34.4455H102.179V40.3679H102.038Z" fill="#D8DBE8"/>
<path d="M102.039 40.3678C102.32 41.7779 101.617 43.329 99.7898 44.3161L66.0557 63.7755C64.5096 64.7626 62.2607 65.1856 60.0117 65.0446V16.5371C62.4012 16.5371 64.9313 17.2422 67.0396 18.3702L94.7297 34.4454H102.039V40.3678Z" fill="white"/>
<path d="M99.7885 37.8297L66.0544 57.2891C62.681 59.2632 56.9181 58.9812 52.9825 56.725L21.2162 38.3937C17.4212 36.1376 16.9995 32.7533 20.2323 30.9202L53.9664 11.4608C57.3398 9.48666 63.1027 9.76868 67.0383 12.0248L98.9451 30.4972C102.74 32.6123 103.162 35.9966 99.7885 37.8297Z" fill="white"/>
<path d="M87.9816 36.8424L64.3678 50.5204C61.9783 51.9305 57.9021 51.6484 55.2314 50.0973L32.8826 37.1244C30.212 35.5733 29.9309 33.1761 32.1798 31.907L55.7937 18.229C58.1832 16.8189 62.2594 17.101 64.93 18.6521L87.2788 31.625C89.9494 33.1761 90.2305 35.4323 87.9816 36.8424Z" fill="#F5F5F5"/>
<g clip-path="url(#clip0_1621_4960)">
<path d="M75.001 8.25014V1.96008C75.001 1.5807 74.7729 1.23883 74.4222 1.09383C74.0722 0.94883 73.6685 1.02883 73.4004 1.29695L44.2979 30.3995C44.0298 30.6676 43.9498 31.0714 44.0948 31.4214C44.2398 31.772 44.5817 32.0001 44.9611 32.0001H51.2511C52 32.0001 51.6711 32.0001 52.1886 32.0001C52.7061 32.0001 53.1261 32.0001 53.1261 32.0001H55.6261C55.1086 32.0001 55.5 32.0001 55.6261 32.0001C56.1436 32.0001 57.5011 32.0001 57.5011 32.0001H60.0011C60.5186 32.0001 60.5 32.0001 61.8761 32.0001H64.3761C63.4225 32.0001 63.8586 32.0001 64.3761 32.0001C64.8936 32.0001 66.5 32 66.2511 32.0001H68.7511C68 32.0001 68.2336 32.0001 68.7511 32.0001C69.2686 32.0001 70 32.0001 70.6261 32.0001H74.0636C74.5811 32.0001 75.0011 31.5801 75.0011 31.0626V27.6251C75.0011 28.1426 75.0011 28.5 75.0011 27.6251C75.0011 27.1076 75.0011 27 75.0011 25.7501V23.2501C75.0011 23.7676 75.0011 24 75.0011 23.2501C75.0011 22.7326 75.0011 22.5 75.0011 21.3751V18.8751C75.0011 19.3926 75.0011 20.5 75.0011 18.8751C75.0011 18.3576 75 18 75 17.0001H75.0011V14.5001C75.0011 15.5 75 15.0175 75 14.5C75 13.9825 75.0011 13.5 75.0011 12.6251V10.1251C75.0011 10.6426 75.0011 11 75.0011 10.1251C75.0011 9.60764 75.001 9.5 75.001 8.25014ZM69.376 25.4376C69.376 25.9551 68.956 26.3751 68.4385 26.3751H58.541C58.1616 26.3751 57.8197 26.147 57.6747 25.7964C57.5297 25.4464 57.6097 25.0426 57.8779 24.7745L67.7754 14.877C68.0435 14.6089 68.4472 14.5289 68.7972 14.6739C69.1479 14.8189 69.376 15.1608 69.376 15.5401V25.4376Z" fill="#BE252B"/>
<path d="M45.8932 18.1512L49.8707 22.1287L47.252 24.7469C46.8851 25.1137 46.2913 25.1119 45.9263 24.7469L43.2745 22.095C42.907 21.7275 42.9101 21.1337 43.2745 20.7694L45.8932 18.1512Z" fill="#BE252B"/>
<path d="M64.7837 6.95777C64.8712 6.95777 64.9599 6.95527 65.0493 6.95027L51.1963 20.8034L47.2188 16.8259L60.8893 3.15527C60.9099 4.21715 61.2887 5.15715 61.9887 5.85777C62.7099 6.57834 63.6837 6.95777 64.7837 6.95777Z" fill="#BE252B"/>
<path d="M67.9297 1.33933L66.3272 4.71683C65.1815 5.23933 63.9934 5.21183 63.3128 4.53121C62.6959 3.91433 62.6159 2.87996 62.9959 1.83808L66.6803 0.0905809C67.0384 -0.0794191 67.4653 -0.00566906 67.7453 0.274331C68.0253 0.554956 68.099 0.981206 67.9297 1.33933Z" fill="#BE252B"/>
</g>
<defs>
<clipPath id="clip0_1621_4960">
<rect width="32" height="32" fill="white" transform="translate(43)"/>
</clipPath>
</defs>
</svg>
