<svg width="121" height="196" viewBox="0 0 121 196" fill="none" xmlns="http://www.w3.org/2000/svg">
<path d="M120.515 160.791C120.515 162.483 119.531 164.175 117.282 165.444L69.2112 193.364C66.9622 194.633 63.87 195.339 60.6371 195.198C57.1232 195.198 53.4686 194.21 50.6574 192.518L5.11647 166.149C2.3053 164.457 0.759137 162.342 0.618578 160.368C0.47802 158.535 1.46191 156.702 3.85141 155.433L51.9225 127.654C54.1714 126.385 57.2637 125.68 60.4966 125.821C64.0105 125.962 67.665 126.808 70.4762 128.5L116.017 154.869C118.969 156.561 120.515 158.676 120.515 160.791Z" fill="#EED7AA"/>
<path d="M60.4951 60.9561V195.198C56.9811 195.198 53.3266 194.211 50.5154 192.518L4.97445 166.15C2.16328 164.457 0.617121 162.342 0.476562 160.368V60.9561H60.4951Z" fill="#CACDE0"/>
<path d="M120.515 60.9561V160.791C120.515 162.483 119.531 164.175 117.282 165.445L69.2108 193.365C66.9618 194.634 63.8696 195.339 60.6367 195.198V60.9561H120.515Z" fill="white"/>
<path d="M117.282 66.0321L69.0703 93.9521C64.2913 96.7723 55.9984 96.3493 50.5166 93.247L4.97561 66.8782C-0.506172 63.6349 -1.0684 58.8406 3.71059 56.1614L51.9222 28.1004C56.7012 25.2802 64.9941 25.7032 70.4759 28.8054L116.017 55.1743C121.499 58.4176 122.061 63.2119 117.282 66.0321Z" fill="#F5F5F5"/>
<path d="M100.273 64.4811L66.5388 83.9404C63.1654 85.9146 57.4025 85.6326 53.4669 83.3764L21.7006 65.0451C17.9056 62.7889 17.4839 59.4047 20.7167 57.5716L54.4508 38.1122C57.8242 36.138 63.5871 36.42 67.5227 38.6762L99.4295 57.1485C103.225 59.2637 103.646 62.6479 100.273 64.4811Z" fill="#EDC5C5"/>
<path d="M108.848 138.23L75.1143 157.689C71.7409 159.663 69.0703 157.548 69.0703 153.177V116.232C69.0703 111.72 71.7409 106.643 75.1143 104.669L108.848 85.2097C112.222 83.2356 114.892 85.3507 114.892 89.722V126.667C114.892 131.038 112.081 136.255 108.848 138.23Z" fill="#F5F5F5"/>
<path d="M86.1664 133.741C85.2088 134.296 84.3435 134.517 83.5705 134.405C82.809 134.286 82.2091 133.82 81.7707 133.007C81.3322 132.181 81.113 131.001 81.113 129.468C81.113 127.935 81.3322 126.508 81.7707 125.187C82.2091 123.853 82.809 122.686 83.5705 121.685C84.3435 120.677 85.2088 119.896 86.1664 119.341C87.1355 118.78 88.0009 118.559 88.7623 118.677C89.5238 118.796 90.1237 119.269 90.5622 120.095C91.0121 120.901 91.2371 122.071 91.2371 123.604C91.2371 125.137 91.0121 126.574 90.5622 127.915C90.1237 129.236 89.5238 130.396 88.7623 131.397C88.0009 132.399 87.1355 133.18 86.1664 133.741ZM86.1664 131.481C86.7317 131.154 87.2221 130.696 87.6374 130.109C88.0528 129.508 88.3758 128.775 88.6066 127.908C88.8489 127.034 88.97 126.037 88.97 124.917C88.97 123.784 88.8489 122.927 88.6066 122.348C88.3758 121.748 88.0528 121.395 87.6374 121.289C87.2221 121.17 86.7317 121.274 86.1664 121.601C85.6241 121.915 85.1396 122.376 84.7127 122.983C84.2973 123.57 83.9685 124.301 83.7262 125.174C83.4955 126.028 83.3801 127.022 83.3801 128.155C83.3801 129.275 83.4955 130.135 83.7262 130.734C83.9685 131.327 84.2973 131.684 84.7127 131.803C85.1396 131.903 85.6241 131.795 86.1664 131.481ZM92.5844 126.644V124.844L98.555 112.365L100.961 110.972L95.0765 123.4L93.9516 123.652L103.556 118.088V120.288L92.5844 126.644ZM99.2299 125.974V122.794L99.2992 120.554V117.734L101.41 116.511V124.711L99.2299 125.974Z" fill="#BE252B"/>
<path d="M102.523 40.3679C102.804 41.778 102.101 43.3291 100.274 44.3162L66.5397 63.7756C64.9936 64.7626 62.7446 65.1857 60.4957 65.0447C58.1062 65.0447 55.5762 64.3396 53.4678 63.2115L21.561 44.7392C19.4526 43.4701 18.3281 41.919 18.3281 40.5089C18.3281 40.3679 18.3281 40.3679 18.3281 40.2269V34.3045H25.6371L54.1706 17.8063C55.7167 16.8192 57.9656 16.3962 60.2146 16.5372C62.6041 16.5372 65.1341 17.2422 67.2425 18.3703L94.9326 34.4455H102.242V40.3679H102.523Z" fill="#D8DBE8"/>
<path d="M102.523 40.3678C102.804 41.7779 102.101 43.329 100.274 44.3161L66.5401 63.7755C64.994 64.7626 62.745 65.1856 60.4961 65.0446V16.5371C62.8856 16.5371 65.4156 17.2422 67.524 18.3702L95.214 34.4454H102.523V40.3678Z" fill="white"/>
<path d="M100.273 37.8301L66.5387 57.2895C63.1653 59.2636 57.4024 58.9816 53.4668 56.7254L21.56 38.2531C17.7649 35.9969 17.3433 32.6127 20.5761 30.7796L54.3102 11.3202C57.6836 9.34603 63.4465 9.62805 67.3821 11.8842L99.2889 30.3565C103.225 32.6127 103.646 35.9969 100.273 37.8301Z" fill="white"/>
<path d="M88.3253 36.8434L64.7115 50.5213C62.322 51.9314 58.2458 51.6494 55.5752 50.0983L33.2264 37.1254C30.5558 35.5743 30.2746 33.1771 32.5236 31.908L56.1374 18.23C58.5269 16.8199 62.6031 17.1019 65.2737 18.653L87.6225 31.626C90.4337 33.1771 90.7148 35.4333 88.3253 36.8434Z" fill="#F5F5F5"/>
<g clip-path="url(#clip0_1621_4753)">
<path d="M52.405 20.7494H60.0924C60.5278 18.6127 62.4215 17 64.6849 17V13.2505C64.6849 11.6975 63.4259 10.4385 61.8728 10.4385H50.6246C49.0715 10.4385 47.8125 11.6975 47.8125 13.2505V17C50.0758 17 51.9695 18.6127 52.405 20.7494ZM57.186 15.1252H59.0607V17H57.186V15.1252ZM53.4366 15.1252H55.3113V17H53.4366V15.1252Z" fill="#BE252B"/>
<path d="M52.5 22.624H59.9988V24.4987H52.5V22.624Z" fill="#BE252B"/>
<path d="M77.0007 9.37646L75.8915 0.00292969H68.6014L67.4922 9.37646H77.0007Z" fill="#BE252B"/>
<path d="M73.1827 11.251H71.308V30.123H67.4961V31.9977H76.9946V30.123H73.1827V11.251Z" fill="#BE252B"/>
<path d="M64.6844 18.875C63.1314 18.875 61.8724 20.134 61.8724 21.6871V26.3738H50.6241V21.6871C50.6241 20.134 49.3651 18.875 47.8121 18.875C46.259 18.875 45 20.134 45 21.6871V30.1232H46.8747V31.9979H48.7494V30.1232H63.7471V31.9979H65.6218V30.1232H67.4965V21.6871C67.4965 20.134 66.2375 18.875 64.6844 18.875Z" fill="#BE252B"/>
</g>
<defs>
<clipPath id="clip0_1621_4753">
<rect width="32" height="32" fill="white" transform="translate(45)"/>
</clipPath>
</defs>
</svg>
