<svg width="121" height="196" viewBox="0 0 121 196" fill="none" xmlns="http://www.w3.org/2000/svg">
<path d="M120.527 160.79C120.527 162.483 119.543 164.175 117.294 165.444L69.2229 193.364C66.9739 194.633 63.8817 195.338 60.6488 195.197C57.1348 195.197 53.4803 194.21 50.6691 192.518L5.12817 166.149C2.317 164.457 0.770856 162.342 0.630297 160.367C0.489739 158.534 1.47363 156.701 3.86313 155.432L52.0747 127.512C54.3237 126.243 57.416 125.538 60.6488 125.679C64.1628 125.82 67.8173 126.666 70.6285 128.358L116.169 154.727C118.981 156.56 120.527 158.675 120.527 160.79Z" fill="#EED7AA"/>
<path d="M60.5068 60.9561V195.198C56.9928 195.198 53.3383 194.211 50.5272 192.518L4.98615 166.15C2.17498 164.457 0.62884 162.342 0.488281 160.368V60.9561H60.5068Z" fill="#CACDE0"/>
<path d="M120.526 60.9561V160.791C120.526 162.483 119.542 164.175 117.294 165.445L69.2225 193.365C66.9736 194.634 63.8813 195.339 60.6484 195.198V60.9561H120.526Z" fill="white"/>
<path d="M117.294 66.0317L69.0821 93.9517C64.3031 96.7719 56.0101 96.3489 50.5283 93.2467L4.98733 66.8778C-0.494453 63.6345 -1.05668 58.8402 3.72231 56.161L51.9339 28.241C56.7129 25.4208 65.0059 25.8438 70.4876 28.9461L116.029 55.3149C121.51 58.4172 122.073 63.2115 117.294 66.0317Z" fill="#F5F5F5"/>
<path d="M100.285 64.4811L66.5505 83.9404C63.1771 85.9146 57.4142 85.6326 53.4786 83.3764L21.7124 65.0451C17.9173 62.7889 17.4956 59.4047 20.7284 57.5716L54.4625 38.1122C57.8359 36.138 63.5988 36.42 67.5344 38.6762L99.4412 57.1485C103.236 59.2637 103.658 62.6479 100.285 64.4811Z" fill="#EDC5C5"/>
<path d="M108.86 138.23L75.1261 157.689C71.7526 159.663 69.082 157.548 69.082 153.177V116.232C69.082 111.72 71.7526 106.643 75.1261 104.669L108.86 85.2097C112.234 83.2356 114.904 85.3507 114.904 89.722V126.667C114.904 131.038 112.234 136.255 108.86 138.23Z" fill="#F5F5F5"/>
<path d="M87.4672 133.018C86.5096 133.573 85.6443 133.794 84.8713 133.682C84.1098 133.563 83.5099 133.097 83.0714 132.285C82.633 131.458 82.4138 130.279 82.4138 128.745C82.4138 127.212 82.633 125.785 83.0714 124.465C83.5099 123.131 84.1098 121.963 84.8713 120.962C85.6443 119.954 86.5096 119.173 87.4672 118.618C88.4363 118.057 89.3016 117.836 90.0631 117.955C90.8246 118.074 91.4245 118.546 91.8629 119.372C92.3129 120.178 92.5379 121.348 92.5379 122.881C92.5379 124.415 92.3129 125.852 91.8629 127.192C91.4245 128.513 90.8246 129.674 90.0631 130.675C89.3016 131.676 88.4363 132.457 87.4672 133.018ZM87.4672 130.758C88.0325 130.431 88.5229 129.974 88.9382 129.386C89.3536 128.786 89.6766 128.052 89.9073 127.185C90.1496 126.311 90.2708 125.315 90.2708 124.195C90.2708 123.061 90.1496 122.205 89.9073 121.625C89.6766 121.025 89.3536 120.672 88.9382 120.566C88.5229 120.447 88.0325 120.551 87.4672 120.878C86.9249 121.193 86.4404 121.653 86.0135 122.26C85.5981 122.848 85.2693 123.578 85.027 124.452C84.7963 125.305 84.6809 126.299 84.6809 127.432C84.6809 128.552 84.7963 129.412 85.027 130.012C85.2693 130.605 85.5981 130.961 86.0135 131.08C86.4404 131.18 86.9249 131.073 87.4672 130.758ZM93.8856 129.101V127.361L98.6967 119.294C99.1005 118.62 99.4005 118.06 99.5966 117.613C99.7927 117.166 99.9196 116.786 99.9773 116.472C100.047 116.139 100.081 115.845 100.081 115.592C100.081 114.952 99.8908 114.569 99.5101 114.443C99.1293 114.303 98.5698 114.448 97.8314 114.875C97.243 115.216 96.7065 115.647 96.2219 116.168C95.7489 116.682 95.3393 117.285 94.9932 117.979L93.4183 117.491C93.8914 116.484 94.5259 115.55 95.322 114.689C96.1296 113.808 97.0295 113.08 98.0217 112.505C98.8986 111.997 99.66 111.723 100.306 111.682C100.964 111.621 101.466 111.79 101.812 112.19C102.169 112.583 102.348 113.192 102.348 114.019C102.348 114.472 102.296 114.956 102.193 115.469C102.089 115.969 101.893 116.55 101.604 117.21C101.316 117.87 100.895 118.668 100.341 119.602L96.2046 126.538L95.7373 125.828L102.816 121.728V123.928L93.8856 129.101Z" fill="#BE252B"/>
<path d="M102.534 40.3683C102.816 41.7784 102.113 43.3295 100.286 44.3166L66.5514 63.7759C65.0053 64.763 62.7564 65.1861 60.5074 65.045C58.1179 65.045 55.5879 64.34 53.4795 63.2119L21.5727 44.7396C19.4643 43.4705 18.3398 41.9194 18.3398 40.5093C18.3398 40.3683 18.3398 40.3683 18.3398 40.2273V34.3048H25.6489L54.1823 17.6656C55.7284 16.6786 57.9774 16.2555 60.2263 16.3966C62.6158 16.3966 65.1459 17.1016 67.2542 18.2297L94.9443 34.3048H102.253V40.3683H102.534Z" fill="#D8DBE8"/>
<path d="M102.535 40.3678C102.816 41.7779 102.113 43.329 100.286 44.3161L66.5518 63.7755C65.0057 64.7626 62.7567 65.1856 60.5078 65.0446V16.5371C62.8973 16.5371 65.4274 17.2422 67.5357 18.3702L95.2258 34.4454H102.535V40.3678Z" fill="white"/>
<path d="M100.285 37.8301L66.5505 57.2895C63.1771 59.2636 57.4142 58.9816 53.4785 56.7254L21.5717 38.2531C17.7766 35.9969 17.355 32.6127 20.5878 30.7796L54.3219 11.3202C57.6953 9.34603 63.4582 9.62805 67.3938 11.8842L99.3006 30.3565C103.236 32.6127 103.658 35.9969 100.285 37.8301Z" fill="white"/>
<path d="M88.3371 36.8434L64.7232 50.5213C62.3337 51.9314 58.2575 51.6494 55.5869 50.0983L33.2381 37.1254C30.5675 35.5743 30.2864 33.1771 32.5353 31.908L56.1492 18.23C58.5386 16.8199 62.6148 17.1019 65.2855 18.653L87.6343 31.626C90.4454 33.1771 90.7266 35.4333 88.3371 36.8434Z" fill="#F5F5F5"/>
<g clip-path="url(#clip0_1621_4751)">
<path d="M75.0625 29.3125V13.25H70.25V21.0625H66.875L63.875 18.0625H60.375V29.3125H54.9431V8.5625H56V7.51188H66V10.5625H67.875V7.51188H72.5706L66.9519 1.875H56V0.8125H48.25V1.875H44.375V7.51188H48.25V8.5625H49.3069V29.3125H44V31.1875H76V29.3125H75.0625ZM66.1867 3.76413L68.0544 5.63688H64.3139L66.1867 3.76413ZM63.5492 3.75L61.7188 5.58044L59.8883 3.75H63.5492ZM56 3.75H57.2367L59.1236 5.63688H56V3.75ZM48.25 5.63688H46.25V3.75H48.25V5.63688ZM53.0681 29.3125H51.1819V25H53.0681V29.3125ZM53.0681 23.125H51.1819V18.875H53.0681V23.125ZM53.0681 17H51.1819V12.75H53.0681V17ZM53.0681 10.875H51.1819V8.5625H53.0681V10.875Z" fill="#BE252B"/>
</g>
<defs>
<clipPath id="clip0_1621_4751">
<rect width="32" height="32" fill="white" transform="translate(44)"/>
</clipPath>
</defs>
</svg>
