<svg width="121" height="196" viewBox="0 0 121 196" fill="none" xmlns="http://www.w3.org/2000/svg">
<path d="M120.019 160.791C120.019 162.483 119.035 164.175 116.786 165.444L68.7151 193.364C66.4662 194.633 63.3739 195.338 60.141 195.197C56.6271 195.197 52.9725 194.21 50.1614 192.518L4.62038 166.29C1.8092 164.598 0.263043 162.483 0.122484 160.509C-0.0180744 158.676 0.965861 156.843 3.35536 155.574L51.5669 127.654C53.8159 126.384 56.9082 125.679 60.141 125.82C63.655 125.961 67.3095 126.807 70.1207 128.5L115.662 154.868C118.473 156.561 120.019 158.676 120.019 160.791Z" fill="#EED7AA"/>
<path d="M59.9991 60.9561V195.198C56.4851 195.198 52.8306 194.211 50.0194 192.518L4.61899 166.291C1.80781 164.598 0.261652 162.483 0.121094 160.509V60.9561H59.9991Z" fill="#CACDE0"/>
<path d="M120.019 60.9561V160.791C120.019 162.483 119.035 164.175 116.786 165.445L68.7147 193.365C66.4658 194.634 63.3735 195.339 60.1406 195.198V60.9561H120.019Z" fill="white"/>
<path d="M116.786 66.0321L68.5743 93.9521C63.7953 96.7723 55.5023 96.3493 50.0206 93.247L4.62014 66.7372C-0.861641 63.4939 -1.42387 58.6996 3.35513 56.0204L51.5667 28.1004C56.3457 25.2802 64.6387 25.7032 70.1205 28.8054L115.661 55.1743C121.003 58.4176 121.565 63.2119 116.786 66.0321Z" fill="#BE252B"/>
<path d="M99.7768 64.4811L66.0427 83.9404C62.6693 85.9146 56.9064 85.6326 52.9708 83.3764L21.2045 65.0451C17.4094 62.7889 16.9878 59.4047 20.2206 57.5716L53.9547 38.1122C57.3281 36.138 63.091 36.42 67.0266 38.6762L98.7929 57.0075C102.729 59.2637 103.15 62.6479 99.7768 64.4811Z" fill="#951D22"/>
<path d="M108.352 138.23L74.6182 157.689C71.2448 159.663 68.5742 157.548 68.5742 153.177V116.232C68.5742 111.72 71.2448 106.643 74.6182 104.669L108.352 85.2097C111.726 83.2356 114.396 85.3507 114.396 89.722V126.667C114.396 131.038 111.726 136.255 108.352 138.23Z" fill="#BE252B"/>
<path d="M87.5375 133.251C86.5799 133.806 85.7146 134.027 84.9416 133.914C84.1801 133.796 83.5802 133.33 83.1418 132.517C82.7033 131.691 82.4841 130.511 82.4841 128.978C82.4841 127.445 82.7033 126.018 83.1418 124.697C83.5802 123.363 84.1801 122.196 84.9416 121.194C85.7146 120.187 86.5799 119.406 87.5375 118.851C88.5066 118.29 89.3719 118.068 90.1334 118.187C90.8949 118.306 91.4948 118.779 91.9332 119.605C92.3832 120.411 92.6082 121.58 92.6082 123.114C92.6082 124.647 92.3832 126.084 91.9332 127.425C91.4948 128.745 90.8949 129.906 90.1334 130.907C89.3719 131.908 88.5066 132.69 87.5375 133.251ZM87.5375 130.991C88.1028 130.663 88.5932 130.206 89.0085 129.619C89.4239 129.018 89.7469 128.284 89.9777 127.417C90.2199 126.544 90.3411 125.547 90.3411 124.427C90.3411 123.294 90.2199 122.437 89.9777 121.857C89.7469 121.258 89.4239 120.905 89.0085 120.799C88.5932 120.679 88.1028 120.783 87.5375 121.111C86.9952 121.425 86.5107 121.886 86.0838 122.493C85.6684 123.08 85.3396 123.811 85.0973 124.684C84.8666 125.538 84.7512 126.531 84.7512 127.665C84.7512 128.785 84.8666 129.645 85.0973 130.244C85.3396 130.837 85.6684 131.193 86.0838 131.313C86.5107 131.412 86.9952 131.305 87.5375 130.991ZM97.7669 127.326C96.9131 127.82 96.0767 128.165 95.2575 128.359C94.4499 128.534 93.7692 128.528 93.2154 128.342L94.1845 125.761C94.6229 125.92 95.1537 125.946 95.7767 125.839C96.3997 125.731 97.0516 125.48 97.7323 125.086C98.5399 124.618 99.1687 124.067 99.6186 123.433C100.069 122.786 100.294 122.136 100.294 121.482C100.294 120.842 100.086 120.456 99.6706 120.323C99.2552 120.19 98.586 120.391 97.663 120.926L96.5555 121.567V119.787L100.017 113.023L100.311 113.832L93.8038 117.601V115.421L102.059 110.64V112.38L98.5976 119.145L97.4208 119.026L98.0957 118.635C99.584 117.773 100.697 117.515 101.436 117.861C102.186 118.186 102.561 118.949 102.561 120.149C102.561 120.936 102.388 121.763 102.041 122.63C101.695 123.497 101.165 124.344 100.449 125.172C99.7455 125.98 98.8514 126.698 97.7669 127.326Z" fill="white"/>
<path d="M102.027 40.3683C102.308 41.7784 101.605 43.3295 99.7777 44.3166L66.0437 63.7759C64.4975 64.763 62.2485 65.1861 59.9996 65.045C57.6101 65.045 55.0801 64.34 52.9717 63.2119L21.0649 44.7396C18.9565 43.4705 17.832 41.9194 17.832 40.5093C17.832 40.3683 17.832 40.3683 17.832 40.2273V34.3048H25.1411L53.6745 17.6656C55.2206 16.6786 57.4696 16.2555 59.7185 16.3966C62.108 16.3966 64.6381 17.1016 66.7464 18.2297L94.4365 34.3048H101.746V40.3683H102.027Z" fill="#D8DBE8"/>
<path d="M102.027 40.3678C102.308 41.7779 101.605 43.329 99.7781 44.3161L66.044 63.7755C64.4979 64.7626 62.2489 65.1856 60 65.0446V16.5371C62.3895 16.5371 64.9196 17.2422 67.0279 18.3702L94.718 34.4454H102.027V40.3678Z" fill="white"/>
<path d="M99.7767 37.8301L66.0427 57.2895C62.6693 59.2636 56.9063 58.9816 52.9707 56.7254L21.0639 38.2531C17.2688 35.9969 16.8471 32.6127 20.08 30.7796L53.8141 11.3202C57.1875 9.34603 62.9503 9.62805 66.886 11.8842L98.7928 30.3565C102.728 32.6127 103.15 35.9969 99.7767 37.8301Z" fill="white"/>
<path d="M87.8293 36.8434L64.2154 50.5213C61.8259 51.9314 57.7497 51.6494 55.0791 50.0983L32.7303 37.1254C30.0597 35.5743 29.7786 33.1771 32.0275 31.908L55.6413 18.23C58.0308 16.8199 62.107 17.1019 64.7776 18.653L87.1265 31.626C89.9376 33.1771 90.2188 35.4333 87.8293 36.8434Z" fill="#F5F5F5"/>
<g clip-path="url(#clip0_1622_4962)">
<path d="M70.425 17.209H66.625V19.1509C67.054 19.2371 67.377 19.6157 67.377 20.0698C67.377 20.5242 67.054 20.9028 66.625 20.9888V25.1089H70.425V17.209Z" fill="#BE252B"/>
<path d="M54.1875 15.1702C54.4456 15.3374 54.6165 15.627 54.6165 15.957C54.6165 16.2871 54.4456 16.5769 54.1875 16.7439V19.0498L55.6226 18.7346V13.2419L54.1875 12.9268V15.1702Z" fill="#BE252B"/>
<path d="M52.3137 16.7434C52.0559 16.5764 51.885 16.2866 51.885 15.9565C51.885 15.6267 52.0559 15.3369 52.3137 15.1699V12.5144L50.8789 12.1992V19.7766L52.3137 19.4614V16.7434Z" fill="#BE252B"/>
<path d="M45.1707 2.84205C44.8896 2.76978 44.5918 2.83179 44.3628 3.00928C44.134 3.18702 44 3.46045 44 3.75001V28.2266C44 28.5164 44.134 28.7898 44.3628 28.9673C44.5291 29.0964 44.7317 29.1641 44.9375 29.1641C45.0154 29.1641 45.0935 29.1545 45.1707 29.1348L59.9199 25.3496V6.6272L45.1707 2.84205ZM56.7617 20.4043L50.1418 21.8584C50.0752 21.8731 50.0076 21.8804 49.9407 21.8804C49.7288 21.8804 49.5212 21.8086 49.353 21.6733C49.1318 21.4954 49.0032 21.2268 49.0032 20.9429V11.0339C49.0032 10.75 49.1318 10.4812 49.353 10.3032C49.5745 10.1252 49.865 10.0574 50.1418 10.1182L56.7617 11.5723C57.1917 11.6668 57.498 12.0476 57.498 12.488V19.4888C57.498 19.929 57.1917 20.3101 56.7617 20.4043Z" fill="#BE252B"/>
<path d="M75.0645 6.86719H61.7969V25.1086H64.7527V16.2712C64.7527 15.7537 65.1726 15.3337 65.6902 15.3337H71.3652C71.8831 15.3337 72.3027 15.7537 72.3027 16.2712V25.1086H75.0645C75.5823 25.1086 76.002 24.6887 76.002 24.1711V7.80469C76.002 7.28687 75.5823 6.86719 75.0645 6.86719Z" fill="#BE252B"/>
</g>
<defs>
<clipPath id="clip0_1622_4962">
<rect width="32" height="32" fill="white" transform="translate(44)"/>
</clipPath>
</defs>
</svg>
