<svg width="79" height="46" viewBox="0 0 79 46" fill="none" xmlns="http://www.w3.org/2000/svg">
<path fill-rule="evenodd" clip-rule="evenodd" d="M34.2 24.8H35.8C36 24.8 36.3 24.7 36.8 24.6C37 24.6 37.2 24.4 37.4 24.2C37.6 24 37.6 23.8 37.6 23.5C37.6 23.1 37.5 22.8 37.2 22.6C37 22.4 36.5 22.3 35.8 22.3H34.2V24.8ZM30.5 31.9V20H36.6C37.7 20 38.6 20.1 39.2 20.3C39.8 20.5 40.3 20.9 40.7 21.4C41.1 21.9 41.3 22.6 41.3 23.3C41.3 24 41.2 24.5 40.9 25C40.6 25.5 40.2 25.9 39.7 26.2C39.4 26.4 39 26.5 38.4 26.7C38.8 26.8 39.2 27 39.4 27.1C39.5 27.2 39.7 27.4 40 27.7C40.3 28 40.4 28.3 40.5 28.4L42.3 31.8H38L36 28.2C35.8 27.7 35.5 27.4 35.3 27.3C35 27.1 34.7 27 34.4 27H34.1V31.8H30.5V31.9ZM45.6 27.6C45.6 28.4 45.8 28.9 46.1 29.3C46.4 29.7 46.8 29.9 47.3 29.9C47.8 29.9 48.2 29.7 48.5 29.4C48.8 29 49 28.5 49 27.7C49 27 48.8 26.4 48.5 26C48.2 25.6 47.8 25.5 47.4 25.5C46.9 25.5 46.5 25.7 46.2 26.1C45.7 26.3 45.6 26.8 45.6 27.6ZM42.3 27.6C42.3 26.3 42.7 25.2 43.6 24.3C44.5 23.4 45.7 23 47.2 23C48.9 23 50.2 23.5 51.1 24.5C51.8 25.3 52.2 26.3 52.2 27.5C52.2 28.8 51.8 29.9 50.9 30.8C50 31.6 48.8 32.1 47.3 32.1C45.9 32.1 44.8 31.7001 44 31C42.8 30.1 42.3 29 42.3 27.6ZM54.3 20H58V24.1H62V20H65.7V31.9H62V27.1H58V31.9H54.3V20ZM68 27.9L71.5 27.7C71.6 28.3 71.7 28.7001 72 29C72.4 29.5 72.9 29.7 73.6 29.7C74.1 29.7 74.5 29.6 74.8 29.3C75.1 29.1 75.2 28.8 75.2 28.4C75.2 28.1 75.1 27.8 74.8 27.6C74.5 27.4 73.9 27.1 72.9 26.9C71.3 26.5 70.1 26.1 69.5 25.5C68.8 24.9 68.5 24.1 68.5 23.2C68.5 22.6 68.7 22 69 21.5C69.4 21 69.9 20.5 70.6 20.2C71.3 19.9 72.3 19.7 73.5 19.7C75 19.7 76.2 20 77 20.5C77.8 21.1 78.3 22 78.4 23.2L75 23.4C74.9 22.9 74.7 22.5 74.4 22.2C74.1 22 73.7 21.8 73.2 21.8C72.8 21.8 72.5 21.9 72.2 22.1C72 22.3 71.9 22.5 71.9 22.8C71.9 23 72 23.2 72.2 23.3C72.4 23.5 72.8 23.6 73.4 23.7C75 24 76.1 24.4 76.8 24.8C77.5 25.2 78 25.6 78.3 26.1C78.6 26.6 78.8 27.2 78.8 27.9C78.8 28.7 78.6 29.4 78.2 30C77.8 30.6 77.2 31.1 76.4 31.5C75.6 31.8 74.7 32 73.5 32C71.5 32 70.1 31.6 69.3 30.8C68.5 30.1 68.1 29.1 68 27.9ZM34.9 36.3L33.5 36.5C33.5 36.2001 33.4 36 33.2 35.9C33 35.8 32.8 35.7001 32.6 35.7001C32.3 35.7001 32 35.8 31.8 36.1C31.6 36.3 31.5 36.7001 31.5 37.3C31.5 37.9 31.6 38.4 31.8 38.6C32 38.9 32.3 39 32.6 39C32.9 39 33.1 38.9 33.2 38.8C33.4 38.7001 33.5 38.4001 33.6 38L35 38.2001C34.9 38.8 34.6 39.3 34.2 39.6C33.8 39.9 33.3 40.1 32.6 40.1C31.8 40.1 31.2 39.9 30.8 39.4C30.3 38.9 30.1 38.2 30.1 37.4C30.1 36.5 30.3 35.9 30.8 35.4C31.3 34.9 31.9 34.7001 32.6 34.7001C33.2 34.7001 33.7 34.8 34.1 35.1C34.4 35.3 34.7 35.8 34.9 36.3ZM37 37.4C37 37.9 37.1 38.3 37.4 38.6C37.6 38.9 37.9 39 38.3 39C38.7 39 39 38.9 39.2 38.6C39.4 38.3 39.6 37.9 39.6 37.4C39.6 36.9 39.5 36.5 39.2 36.2001C39 35.9001 38.7 35.8 38.3 35.8C37.9 35.8 37.6 35.9001 37.4 36.2001C37.1 36.5 37 36.9 37 37.4ZM35.6 37.3C35.6 36.8 35.7 36.4001 35.9 36C36.1 35.6 36.4 35.2001 36.9 35C37.3 34.8 37.8 34.7001 38.3 34.7001C39.1 34.7001 39.7 35 40.2 35.5C40.7 36 41 36.7001 41 37.5C41 38.3 40.7 38.9001 40.2 39.5C39.7 40 39 40.3 38.3 40.3C37.8 40.3 37.4 40.2001 36.9 40C36.5 39.8 36.1 39.5 35.9 39C35.7 38.4001 35.6 37.9 35.6 37.3ZM42 34.8H43.3V35.5C43.8 35 44.3 34.7001 44.9 34.7001C45.2 34.7001 45.5 34.8 45.8 34.9C46 35 46.2 35.2001 46.4 35.5C46.6 35.2001 46.9 35 47.1 34.9C47.4 34.8 47.6 34.7001 48 34.7001C48.4 34.7001 48.7 34.8 49 34.9C49.3 35.1 49.5 35.3 49.6 35.6C49.7 35.8 49.7 36.2001 49.7 36.7001V40H48.3V37C48.3 36.5 48.3 36.1 48.2 36C48.1 35.8 47.9 35.7001 47.6 35.7001C47.4 35.7001 47.2 35.8 47.1 35.9C46.9 36 46.8 36.2 46.7 36.4C46.6 36.6 46.6 37 46.6 37.5V40H45.2V37.1C45.2 36.6 45.2 36.3 45.1 36.1C45.1 36 45 35.8 44.9 35.8C44.8 35.7001 44.7 35.7001 44.5 35.7001C44.3 35.7001 44.1 35.8 43.9 35.9C43.7 36 43.6 36.2 43.5 36.4C43.4 36.6 43.4 37 43.4 37.5V40H42V34.8ZM52.4 37.3C52.4 37.9 52.5 38.3 52.7 38.6C52.9 38.9 53.2 39 53.5 39C53.8 39 54.1 38.9 54.3 38.6C54.5 38.3 54.6 37.9 54.6 37.3C54.6 36.7001 54.5 36.3 54.3 36.1C54.1 35.8 53.8 35.7001 53.5 35.7001C53.2 35.7001 52.9 35.8 52.7 36.1C52.5 36.4 52.4 36.8 52.4 37.3ZM51 34.8H52.3V35.6C52.5 35.3 52.7 35.1 53 35C53.3 34.8 53.6 34.8 54 34.8C54.6 34.8 55.1 35 55.5 35.5C55.9 36 56.1 36.6 56.1 37.5C56.1 38.4001 55.9 39.1 55.5 39.5C55.1 40 54.6 40.2001 53.9 40.2001C53.6 40.2001 53.3 40.1 53.1 40C52.9 39.9001 52.6 39.7 52.4 39.4V42H51V34.8ZM57.2 40V32.8H58.6V40H57.2ZM60 40V34.8H61.4V40H60ZM60 34.1V32.8H61.4V34.1H60ZM65.7 37.5C65.5 37.6 65.2 37.6001 64.9 37.7001C64.5 37.8 64.3 37.9 64.1 37.9C63.9 38 63.8 38.2 63.8 38.4C63.8 38.6 63.9 38.8 64 38.9C64.1 39 64.3 39.1 64.6 39.1C64.8 39.1 65.1 39 65.3 38.9C65.5 38.8 65.6 38.6 65.6 38.4C65.6 38.3 65.7 38.1001 65.7 37.7001V37.5ZM63.8 36.4L62.6 36.2001C62.7 35.7001 63 35.3 63.3 35.1C63.6 34.9 64.2 34.7001 64.8 34.7001C65.4 34.7001 65.9 34.8 66.2 34.9C66.5 35 66.7 35.2001 66.8 35.5C66.9 35.7001 67 36.1001 67 36.7001V38.3C67 38.8 67 39.1 67.1 39.3C67.1 39.5 67.2 39.8 67.3 40H66C66 39.9001 65.9 39.8 65.9 39.6C65.9 39.5 65.9 39.5 65.9 39.4C65.7 39.6 65.4 39.8 65.1 39.9C64.8 40 64.5 40.1 64.2 40.1C63.7 40.1 63.2 40 62.9 39.7001C62.6 39.4001 62.4 39 62.4 38.6C62.4 38.3 62.5 38 62.6 37.8C62.7 37.6 62.9 37.4 63.2 37.3C63.5 37.2001 63.8 37.1 64.3 37C64.9 36.9001 65.4 36.8 65.6 36.7001V36.6C65.6 36.3 65.5 36.1 65.4 36C65.3 35.9001 65 35.8 64.7 35.8C64.5 35.8 64.3 35.8 64.1 35.9C64 36 63.9 36.1 63.8 36.4ZM73.2 40H71.8V37.3C71.8 36.7001 71.8 36.4001 71.7 36.2001C71.6 36 71.5 35.9 71.4 35.8C71.3 35.7001 71.1 35.7001 70.9 35.7001C70.7 35.7001 70.4 35.8 70.2 35.9C70 36 69.9 36.2 69.8 36.4C69.7 36.6 69.7 37 69.7 37.6V40H68.3V34.8H69.6V35.6C70.1 35 70.6 34.7001 71.3 34.7001C71.6 34.7001 71.9 34.8 72.1 34.9C72.4 35 72.5 35.2001 72.7 35.3C72.8 35.5 72.9 35.7 73 35.9C73.1 36.1 73.1 36.4 73.1 36.8V40H73.2ZM77 34.8V35.9H76V38C76 38.4001 76 38.7001 76 38.8C76 38.9 76.1 38.9001 76.1 39C76.2 39 76.2 39.1 76.3 39.1C76.4 39.1 76.6 39.1 76.9 39L77 40.1C76.7 40.2 76.3 40.3 75.9 40.3C75.7 40.3 75.4 40.3 75.2 40.2001C75 40.1001 74.9 40 74.8 39.9C74.7 39.8 74.6 39.6 74.6 39.4C74.6 39.2 74.6 38.9 74.6 38.4V36.1H74V35H74.6V34L76 33.2001V35.1H77V34.8ZM7.9 11V22.6C12.2 26.8 15.5 32.1 18.3 38C21.6 27.4 28.2 18.4 39.4 11.7C41.3 14.5 42.5 17.9 42.8 21.5H45.2C44.9 17.5 43.6 13.7 41.5 10.5C43.1 9.60005 44.8 8.80005 46.6 8.00005L38.4 0.300049L34.8 3.80005C31.3 1.60005 27.1 0.300049 22.7 0.300049C10.1 0.300049 0 10.5 0 23C0 35.5 10.1 45.7001 22.7 45.7001C27.3 45.7001 31.5 44.3 35.1 42H29.8C27.6 42.8 25.2 43.3 22.7 43.3C11.5 43.3 2.5 34.2001 2.5 23.1C2.5 11.9 11.6 2.90005 22.7 2.90005C26.5 2.90005 30 3.90005 33 5.70005L17.7 20.5L7.9 11Z" fill="#007B40"/>
</svg>
