<svg width="46" height="46" viewBox="0 0 46 46" fill="none" xmlns="http://www.w3.org/2000/svg">
<g clip-path="url(#clip0_826_4258)">
<path fill-rule="evenodd" clip-rule="evenodd" d="M20.3983 33.1499H24.8983V12.7499H20.3983V33.1499ZM28.2983 29.5499V33.1499C29.5983 33.1499 31.3983 33.2499 32.6983 33.0499C34.5983 32.8499 35.8983 31.8499 36.8983 30.4499C37.9983 28.8499 38.0983 26.7499 37.3983 24.9499C36.8983 23.7499 36.2983 23.2499 35.4983 22.4499L33.0983 20.3499C32.2983 19.5499 32.0983 18.1499 32.9983 17.1499C33.5983 16.4499 34.0983 16.3499 34.6983 16.3499H36.3983H36.5983V12.7499H34.5983C33.6983 12.7499 32.7983 12.8499 32.3983 12.9499C31.1983 13.2499 30.0983 14.0499 29.5983 14.6499C27.9983 16.7499 27.6983 19.1499 29.0983 21.4499C29.4983 22.1499 31.7983 24.2499 32.3983 24.7499C32.7983 25.0499 33.1983 25.3499 33.3983 26.0499C33.8983 27.4499 33.1983 28.6499 32.2983 29.1499C31.5983 29.7499 29.5983 29.5499 28.2983 29.5499ZM16.3983 12.7499H12.2983C12.1983 16.1499 12.2983 19.7499 12.2983 23.1499C12.2983 24.9499 12.3983 26.3499 11.4983 27.6499C9.49827 30.2499 5.99827 29.9499 4.49827 27.8499C3.49827 26.5499 3.39827 25.6499 3.29827 23.7499C2.89827 15.3499 7.99827 7.74988 15.7983 4.74988C21.5983 2.54988 28.1983 3.34988 32.7983 6.34988C35.0983 7.74988 36.7983 9.34988 38.2983 11.3499C39.6983 13.2499 40.9983 15.6499 41.6983 18.5499C44.2983 30.2499 36.0983 41.4499 24.3983 42.4499C19.5983 42.8499 15.5983 41.5499 11.8983 39.1499C11.3983 38.8499 10.7983 38.3499 10.3983 38.0499L8.99827 36.8499C8.39827 37.3499 6.99827 38.5499 6.69827 39.0499C6.99827 39.3499 7.29827 39.5499 7.49827 39.8499L8.29827 40.5499C8.79827 41.0499 9.49827 41.4499 10.1983 41.9499C17.5983 46.7499 27.3983 47.0499 34.8983 42.0499C36.1983 41.2499 36.4983 40.9499 37.5983 39.9499C39.0983 38.6499 40.1983 37.4499 41.3983 35.6499C45.0983 30.1499 46.6983 22.5499 43.8983 15.2499C42.7983 12.2499 40.5983 8.64988 38.1983 6.54988C36.0983 4.74988 33.9983 3.14988 31.2983 2.14988C24.2983 -0.650115 17.1983 -0.0501151 10.7983 3.74988C9.49827 4.54988 8.29827 5.54988 7.19827 6.44988C6.59827 6.94988 6.19827 7.54988 5.59827 8.14988C3.09827 10.7499 1.09827 14.9499 0.398271 18.9499C-0.601729 24.2499 -0.101729 30.4499 5.19827 32.6499C10.0983 34.6499 15.8983 31.3499 16.2983 25.6499C16.3983 23.6499 16.2983 21.2499 16.2983 19.2499C16.3983 17.0499 16.3983 14.9499 16.3983 12.7499Z" fill="black"/>
</g>
<defs>
<clipPath id="clip0_826_4258">
<rect width="45.4" height="45.3" fill="white" transform="translate(0 0.350098)"/>
</clipPath>
</defs>
</svg>
