<svg width="46" height="46" viewBox="0 0 46 46" fill="none" xmlns="http://www.w3.org/2000/svg">
<path fill-rule="evenodd" clip-rule="evenodd" d="M10.7 33.95V31.75C10.7 31.45 10.5 31.25 10.1 31.25C9.7 31.25 9.5 31.45 9.5 31.75V34.15C9.5 34.45 9.7 34.65 10.1 34.65C10.3 34.65 10.4 34.65 10.5 34.55C10.4 34.45 10.3 34.35 10.2 34.25V33.55C10.4 33.75 10.5 33.85 10.7 33.95ZM15.9 35.35H15V34.95C14.8 35.05 14.6 35.15 14.5 35.25C14.3 35.35 14.1 35.35 13.9 35.35C13.6 35.35 13.4 35.25 13.3 35.15C13.2 35.05 13.1 34.85 13.1 34.65V31.85H14.1V34.55C14.1 34.75 14.2 34.85 14.4 34.85C14.5 34.85 14.8 34.75 15 34.65V31.85H16V35.35H15.9ZM18.8 34.55V33.65C18.5 33.75 18.2 33.95 18.1 34.05C17.9 34.25 17.7 34.45 17.7 34.65C17.7 34.85 17.8 34.95 18.1 34.95C18.3 34.85 18.6 34.75 18.8 34.55ZM19.8 35.35H18.9L18.8 35.05C18.4 35.25 18.1 35.35 17.7 35.35C17.4 35.35 17.1 35.25 17 35.15C16.8 35.05 16.7 34.85 16.7 34.55C16.7 34.15 16.9 33.75 17.3 33.55C17.4 33.45 17.6 33.35 17.9 33.25C18.1 33.15 18.4 33.05 18.7 32.95V32.75C18.7 32.45 18.5 32.25 18.2 32.25C18 32.25 17.9 32.25 17.8 32.35C17.7 32.45 17.7 32.55 17.7 32.75H16.7C16.7 32.45 16.9 32.15 17.1 31.95C17.4 31.75 17.7 31.65 18.2 31.65C19.1 31.65 19.6 31.95 19.6 32.65C19.6 32.85 19.6 33.05 19.6 33.45C19.6 33.75 19.6 34.05 19.6 34.25C19.7 34.75 19.7 35.05 19.8 35.35ZM21.6 35.35H20.6V30.65H21.6V35.35ZM24.5 34.55V33.65C24.2 33.75 23.9 33.95 23.8 34.05C23.6 34.25 23.4 34.45 23.4 34.65C23.4 34.85 23.5 34.95 23.8 34.95C24.1 34.85 24.3 34.75 24.5 34.55ZM25.5 35.35H24.6L24.5 35.05C24.1 35.25 23.8 35.35 23.4 35.35C23.1 35.35 22.8 35.25 22.7 35.15C22.5 35.05 22.4 34.85 22.4 34.55C22.4 34.15 22.6 33.75 23 33.55C23.1 33.45 23.3 33.35 23.6 33.25C23.8 33.15 24.1 33.05 24.4 32.95V32.75C24.4 32.45 24.2 32.25 23.9 32.25C23.7 32.25 23.6 32.25 23.5 32.35C23.4 32.45 23.4 32.55 23.4 32.75H22.4C22.4 32.45 22.6 32.15 22.8 31.95C23.1 31.75 23.4 31.65 23.9 31.65C24.8 31.65 25.3 31.95 25.3 32.65C25.3 32.85 25.3 33.05 25.3 33.45C25.3 33.75 25.3 34.05 25.3 34.25C25.4 34.75 25.4 35.05 25.5 35.35ZM29.2 35.35H28.2V32.65C28.2 32.45 28.1 32.35 27.9 32.35C27.8 32.35 27.5 32.45 27.3 32.55V35.35H26.3V31.85H27.2V32.15C27.4 31.95 27.6 31.85 27.7 31.85C27.9 31.75 28.1 31.75 28.3 31.75C28.6 31.75 28.8 31.85 28.9 31.95C29 32.05 29.1 32.25 29.1 32.45V35.35H29.2ZM32 34.25V32.95C32 32.55 31.8 32.35 31.5 32.35C31.1 32.35 31 32.55 31 32.95V34.25C31 34.65 31.2 34.85 31.5 34.85C31.8 34.85 32 34.65 32 34.25ZM33 34.15C33 35.05 32.5 35.45 31.5 35.45C30.5 35.45 30 35.05 30 34.15V33.15C30 32.25 30.5 31.85 31.5 31.85C32.5 31.85 33 32.25 33 33.15V34.15ZM35.6 34.65V32.55C35.4 32.45 35.2 32.35 35.1 32.35C34.8 32.35 34.6 32.55 34.6 32.95V34.25C34.6 34.65 34.8 34.85 35.1 34.85C35.2 34.85 35.4 34.75 35.6 34.65ZM36.6 35.35H35.7V34.95C35.5 35.15 35.4 35.25 35.3 35.25C35.1 35.35 34.9 35.35 34.7 35.35C34.4 35.35 34.1 35.25 33.9 35.05C33.8 34.85 33.7 34.65 33.7 34.35V32.65C33.7 32.35 33.8 32.15 33.9 31.95C34.1 31.75 34.3 31.65 34.7 31.65C34.9 31.65 35.1 31.65 35.2 31.75C35.3 31.85 35.5 31.95 35.7 32.05V30.55H36.7V35.35H36.6ZM22.5 11.55V28.35L29.4 27.75V14.55L22.5 11.55ZM22 26.25H13.3V27.75L22 28.35V26.25ZM13.3 24.75V25.75L22 25.65V23.85C21.9 23.85 13.3 24.75 13.3 24.75ZM13.3 23.15V24.25L22 23.35V21.75L13.3 23.15ZM13.3 21.75V22.65L22 21.25V19.75L13.3 21.75ZM13.2 20.15V21.15L21.9 19.05V17.55L13.2 20.15ZM13.2 18.75V19.75L22 17.15V15.75L13.2 18.75ZM13.2 17.15V18.05L22 15.05V13.65L13.2 17.15ZM13.2 15.45V16.45L22 13.05V11.65L13.2 15.45ZM14.2 12.75V14.35L22.3 10.85L28.3 13.35V11.85L22.2 9.14998L14.2 12.75ZM12.1 35.75C11.7 35.75 11.3 35.65 11 35.35C10.8 35.45 10.5 35.45 10.1 35.45C9.6 35.45 9.2 35.35 8.9 35.15C8.6 34.95 8.5 34.65 8.5 34.25V31.85C8.5 31.45 8.6 31.15 8.9 30.95C9.2 30.75 9.6 30.65 10.1 30.65C10.6 30.65 11 30.75 11.3 30.95C11.6 31.15 11.7 31.45 11.7 31.85V34.25C11.7 34.45 11.6 34.65 11.5 34.85C11.7 34.95 11.8 35.05 12 35.05V35.75H12.1ZM4.8 35.65V36.05H2.1V35.65H4.8ZM4.8 33.15V33.55L3.1 34.05H4.8V34.45H2.1V34.05L3.6 33.55H2.1V33.15H4.8ZM2.5 31.05V31.45H4.8V31.85H2.5V32.25H2.1V31.05H2.5ZM4.8 29.15V30.35H2.1V29.25H2.5V29.95H3.2V29.35H3.6V29.85H4.4V29.15H4.8ZM2.9 27.35C2.8 27.35 2.7 27.35 2.6 27.45C2.5 27.45 2.5 27.55 2.5 27.65V27.75H3.3V27.65C3.3 27.55 3.3 27.45 3.2 27.45C3.1 27.35 3 27.35 2.9 27.35ZM4.8 26.95V27.35L3.7 27.65C3.7 27.75 3.7 27.75 3.7 27.85H4.8V28.25H2.1V27.65C2.1 27.55 2.1 27.45 2.1 27.35C2.1 27.25 2.2 27.15 2.2 27.15C2.3 27.05 2.5 26.95 2.8 26.95C3.2 26.95 3.4 27.05 3.5 27.25L4.8 26.95ZM4.8 24.55V24.95L3.1 25.45H4.8V25.85H2.1V25.45L3.6 24.95H2.1V24.55H4.8ZM3.8 22.75L2.6 22.95L3.8 23.15V22.75ZM4.8 22.25V22.65L4.2 22.75V23.15L4.8 23.25V23.65L2.1 23.25V22.75L4.8 22.25ZM2.5 20.35V20.75H4.8V21.15H2.5V21.55H2.1V20.35H2.5ZM4.8 18.95V19.35H2.1V18.95H4.8ZM4.1 16.95H2.7C2.5 16.95 2.4 17.05 2.4 17.15C2.4 17.35 2.5 17.35 2.7 17.35H4.1C4.3 17.35 4.4 17.25 4.4 17.15C4.4 17.05 4.3 16.95 4.1 16.95ZM4.1 16.55C4.3 16.55 4.5 16.65 4.6 16.75C4.7 16.85 4.8 17.05 4.8 17.25C4.8 17.45 4.7 17.55 4.6 17.65C4.5 17.75 4.3 17.85 4.1 17.85H2.7C2.5 17.85 2.3 17.75 2.2 17.65C2.1 17.55 2 17.35 2 17.15C2 16.95 2.1 16.85 2.2 16.65C2.3 16.55 2.5 16.45 2.7 16.45H4.1V16.55ZM4.8 14.15V14.55L3.1 15.05H4.8V15.45H2.1V15.05L3.6 14.55H2.1V14.15H4.8ZM3.8 12.35L2.6 12.55L3.8 12.75V12.35ZM4.8 11.85V12.25L4.2 12.35V12.75L4.8 12.85V13.25L2.1 12.85V12.35L4.8 11.85ZM4.8 9.94998V10.95H2.1V10.55H4.4V9.94998H4.8ZM42.9 11.35V10.65H42.2V11.15H41.8V10.65H40.6V10.25H43.3V11.35H42.9ZM41.2 13.15H42.6C42.8 13.15 42.9 13.05 42.9 12.95C42.9 12.85 42.8 12.75 42.6 12.75H41.2C41 12.75 40.9 12.85 40.9 12.95C40.9 13.05 41 13.15 41.2 13.15ZM41.2 13.55C41 13.55 40.8 13.45 40.7 13.35C40.6 13.25 40.5 13.05 40.5 12.85C40.5 12.65 40.6 12.55 40.7 12.45C40.8 12.35 41 12.25 41.2 12.25H42.6C42.8 12.25 43 12.35 43.1 12.45C43.2 12.55 43.3 12.75 43.3 12.85C43.3 13.05 43.2 13.15 43.1 13.35C43 13.45 42.8 13.55 42.6 13.55H41.2ZM42.5 15.45C42.6 15.45 42.7 15.45 42.8 15.35C42.9 15.35 42.9 15.25 42.9 15.15V15.05H42.1V15.15C42.1 15.25 42.1 15.35 42.2 15.35C42.2 15.45 42.3 15.45 42.5 15.45ZM40.6 15.95V15.55L41.7 15.25C41.7 15.15 41.7 15.15 41.7 15.05H40.6V14.65H43.3V15.25C43.3 15.35 43.3 15.45 43.3 15.55C43.3 15.65 43.2 15.75 43.2 15.75C43.1 15.85 42.9 15.95 42.6 15.95C42.2 15.95 42 15.85 41.9 15.65L40.6 15.95ZM41.6 18.45L42.8 18.25L41.6 18.05V18.45ZM40.6 18.95V18.55L41.2 18.45V18.05L40.6 17.95V17.55L43.3 17.95V18.45L40.6 18.95ZM40.6 21.15V20.75L42.3 20.25H40.6V19.85H43.3V20.25L41.8 20.75H43.3V21.15H40.6ZM41.2 23.15H42.6C42.8 23.15 42.9 23.05 42.9 22.95C42.9 22.85 42.8 22.75 42.6 22.75H41.2C41 22.75 40.9 22.85 40.9 22.95C40.9 23.05 41 23.15 41.2 23.15ZM41.2 23.55C41 23.55 40.8 23.45 40.7 23.35C40.6 23.25 40.5 23.05 40.5 22.85C40.5 22.65 40.6 22.55 40.7 22.45C40.8 22.35 41 22.25 41.2 22.25H42.6C42.8 22.25 43 22.35 43.1 22.45C43.2 22.55 43.3 22.75 43.3 22.85C43.3 23.05 43.2 23.15 43.1 23.35C43 23.45 42.8 23.55 42.6 23.55H41.2ZM41.3 25.35H42.5C42.6 25.35 42.7 25.35 42.8 25.25C42.9 25.25 42.9 25.15 42.9 25.05V24.95H41V25.05C41 25.15 41 25.25 41.1 25.25C41.1 25.35 41.2 25.35 41.3 25.35ZM41.4 25.85C40.9 25.85 40.6 25.65 40.6 25.25V24.65H43.3V25.25C43.3 25.65 43 25.85 42.5 25.85H41.4ZM40.6 27.35V26.95H43.3V27.35H40.6ZM41.2 29.65C41 29.65 40.8 29.55 40.7 29.45C40.6 29.35 40.5 29.15 40.5 28.95C40.5 28.75 40.6 28.65 40.7 28.55C40.8 28.45 41 28.35 41.2 28.35L41.3 28.75C41 28.75 40.9 28.85 40.9 28.95C40.9 29.15 41 29.15 41.1 29.15C41.2 29.15 41.4 29.05 41.5 28.95C41.6 28.85 41.7 28.75 41.9 28.55C42.1 28.45 42.3 28.35 42.5 28.35C42.7 28.35 42.9 28.45 43 28.55C43.1 28.65 43.1 28.65 43.1 28.75C43.1 28.85 43.1 28.95 43.1 29.05C43.1 29.25 43 29.35 42.9 29.45C42.8 29.55 42.6 29.55 42.4 29.65L42.3 29.25C42.5 29.25 42.6 29.15 42.6 29.05C42.6 28.95 42.5 28.85 42.3 28.85C42.2 28.85 42 28.95 41.9 29.05C41.8 29.15 41.7 29.25 41.7 29.25C41.6 29.35 41.6 29.35 41.5 29.45C41.6 29.55 41.4 29.65 41.2 29.65ZM40.6 31.05V30.65H43.3V31.05H40.6ZM40.6 33.55V33.15L42.3 32.65H40.6V32.25H43.3V32.65L41.8 33.15H43.3V33.55H40.6ZM40.6 35.85V35.65L40.8 35.55C40.6 35.45 40.6 35.25 40.6 35.15C40.6 34.95 40.7 34.85 40.8 34.75C40.9 34.75 40.9 34.65 41 34.65C41.1 34.65 41.2 34.65 41.3 34.65H42.7C42.9 34.65 43.1 34.75 43.2 34.85C43.3 34.95 43.4 35.15 43.4 35.25C43.4 35.45 43.3 35.65 43.1 35.75C43 35.85 42.7 35.85 42.5 35.85V35.45C42.7 35.45 42.8 35.45 42.8 35.45C42.9 35.45 43 35.35 43 35.25C43 35.15 42.9 35.05 42.7 35.05H41.3C41.1 35.05 41 35.15 41 35.25C41 35.45 41.1 35.45 41.4 35.45H41.5H41.6V35.15H42V35.85H40.6ZM11.3 42.75L11.1 41.55L11 42.75H11.3ZM11.8 43.75H11.4L11.3 43.15H10.9L10.8 43.75H10.4L10.8 41.05H11.3L11.8 43.75ZM13.6 41.85C13.6 41.75 13.6 41.65 13.5 41.55C13.5 41.45 13.4 41.45 13.3 41.45H13.2V42.25H13.3C13.4 42.25 13.5 42.25 13.5 42.15C13.6 42.15 13.6 42.05 13.6 41.85ZM14 43.75H13.6L13.3 42.65C13.2 42.65 13.2 42.65 13.1 42.65V43.75H12.7V41.05H13.3C13.4 41.05 13.5 41.05 13.6 41.05C13.7 41.05 13.8 41.15 13.8 41.15C13.9 41.25 14 41.45 14 41.75C14 42.15 13.9 42.35 13.7 42.45L14 43.75ZM16.2 43.15C16.2 43.35 16.1 43.55 16 43.65C15.9 43.75 15.7 43.85 15.6 43.85C15.4 43.85 15.3 43.75 15.1 43.65C15.1 43.55 15 43.35 15 43.15V41.75C15 41.55 15.1 41.35 15.2 41.25C15.3 41.15 15.5 41.05 15.7 41.05C15.9 41.05 16.1 41.15 16.2 41.35C16.3 41.45 16.3 41.75 16.3 42.05H15.9C15.9 41.85 15.9 41.75 15.9 41.75C15.9 41.65 15.8 41.55 15.7 41.55C15.6 41.55 15.5 41.65 15.5 41.85V43.25C15.5 43.45 15.6 43.55 15.7 43.55C15.8 43.55 15.9 43.45 15.9 43.25C15.9 43.15 15.9 43.15 15.9 43.15V43.05H16.3V43.15H16.2ZM18.5 43.75H18.1V42.55H17.7V43.75H17.3V41.05H17.7V42.15H18.1V41.05H18.5V43.75ZM20.1 43.75H19.7V41.05H20.1V43.75ZM22.3 41.45H21.9V43.75H21.5V41.45H21.1V41.05H22.3V41.45ZM24.2 43.75H23V41.05H24.1V41.45H23.4V42.15H24V42.55H23.5V43.35H24.2V43.75ZM26.3 43.15C26.3 43.35 26.2 43.55 26.1 43.65C26 43.75 25.8 43.85 25.7 43.85C25.5 43.85 25.4 43.75 25.2 43.65C25.1 43.55 25 43.35 25 43.15V41.75C25 41.55 25.1 41.35 25.2 41.25C25.3 41.15 25.5 41.05 25.7 41.05C25.9 41.05 26.1 41.15 26.2 41.35C26.3 41.45 26.3 41.75 26.3 42.05H25.9C25.9 41.85 25.9 41.75 25.9 41.75C25.9 41.65 25.8 41.55 25.7 41.55C25.6 41.55 25.5 41.65 25.5 41.85V43.25C25.5 43.45 25.6 43.55 25.7 43.55C25.8 43.55 25.9 43.45 25.9 43.25C25.9 43.15 25.9 43.15 25.9 43.15V43.05H26.3V43.15ZM28.3 41.45H27.9V43.75H27.5V41.45H27.1V41.05H28.3V41.45ZM30.4 43.05C30.4 43.25 30.3 43.45 30.2 43.55C30.1 43.65 29.9 43.75 29.7 43.75C29.5 43.75 29.4 43.65 29.2 43.55C29.1 43.45 29 43.25 29 43.05V41.05H29.4V43.05C29.4 43.25 29.5 43.35 29.6 43.35C29.7 43.35 29.8 43.25 29.8 43.05V41.05H30.2V43.05H30.4ZM32.3 41.85C32.3 41.75 32.3 41.65 32.2 41.55C32.2 41.45 32.1 41.45 32 41.45H31.9V42.25H32C32.1 42.25 32.2 42.25 32.2 42.15C32.3 42.15 32.3 42.05 32.3 41.85ZM32.8 43.75H32.4L32.1 42.65C32 42.65 32 42.65 31.9 42.65V43.75H31.5V41.05H32.1C32.2 41.05 32.3 41.05 32.4 41.05C32.5 41.05 32.6 41.15 32.6 41.15C32.7 41.25 32.8 41.45 32.8 41.75C32.8 42.15 32.7 42.35 32.5 42.45L32.8 43.75ZM34.9 43.75H33.8V41.05H34.9V41.45H34.2V42.15H34.7V42.55H34.2V43.35H34.9V43.75ZM11.4 4.54998V3.24998C11.4 3.04998 11.3 2.94998 11.2 2.94998C11.1 2.94998 11 3.04998 11 3.24998V4.64998C11 4.84998 11.1 4.94998 11.2 4.94998C11.3 4.94998 11.3 4.94998 11.3 4.94998C11.3 4.84998 11.2 4.84998 11.2 4.84998V4.34998C11.3 4.34998 11.4 4.44998 11.4 4.54998ZM12 5.54998C11.8 5.54998 11.7 5.44998 11.6 5.24998C11.5 5.34998 11.3 5.34998 11.2 5.34998C11 5.34998 10.9 5.24998 10.8 5.14998C10.7 5.04998 10.6 4.84998 10.6 4.64998V3.24998C10.6 3.04998 10.7 2.84998 10.8 2.74998C10.9 2.64998 11.1 2.54998 11.2 2.54998C11.4 2.54998 11.5 2.64998 11.6 2.74998C11.7 2.84998 11.8 3.04998 11.8 3.24998V4.64998C11.8 4.74998 11.8 4.84998 11.7 4.94998C11.8 5.04998 11.8 5.04998 11.9 5.04998V5.54998H12ZM14.2 4.64998C14.2 4.84998 14.1 5.04998 14 5.14998C14 5.24998 13.8 5.34998 13.6 5.34998C13.4 5.34998 13.3 5.24998 13.2 5.14998C13.1 5.04998 13 4.84998 13 4.64998V2.64998H13.4V4.64998C13.4 4.84998 13.5 4.94998 13.6 4.94998C13.7 4.94998 13.8 4.84998 13.8 4.64998V2.64998H14.2V4.64998ZM16 4.34998L15.8 3.14998L15.7 4.34998H16ZM16.5 5.34998H16.1L16 4.74998H15.6L15.5 5.34998H15.1L15.5 2.64998H16L16.5 5.34998ZM18.3 5.34998H17.3V2.64998H17.7V4.94998H18.3V5.34998ZM19.7 5.34998H19.3V2.64998H19.7V5.34998ZM21.8 3.04998H21.4V5.34998H21V3.04998H20.6V2.64998H21.8V3.04998ZM23.9 2.64998C23.9 2.74998 23.8 2.94998 23.8 3.04998C23.8 3.14998 23.7 3.34998 23.7 3.44998C23.6 3.74998 23.5 4.04998 23.5 4.24998V5.34998H23V4.14998C23 4.04998 23 4.04998 23 3.94998C23 3.84998 23 3.74998 22.9 3.64998C22.9 3.54998 22.8 3.44998 22.8 3.34998C22.8 3.24998 22.7 3.04998 22.7 2.94998C22.6 2.74998 22.6 2.64998 22.6 2.54998H23L23.3 3.54998L23.6 2.54998H23.9V2.64998ZM26.5 5.34998H25.5V2.64998H25.9V4.94998H26.5V5.34998ZM28.1 4.34998L27.9 3.14998L27.8 4.34998H28.1ZM28.6 5.34998H28.2L28.1 4.74998H27.7L27.6 5.34998H27.2L27.6 2.64998H28.1L28.6 5.34998ZM30.4 4.54998C30.4 4.24998 30.3 4.14998 30.1 4.14998H30V4.94998H30.2C30.3 4.94998 30.4 4.74998 30.4 4.54998ZM30.3 3.34998C30.3 3.04998 30.2 2.94998 30 2.94998H29.9V3.64998H30C30.1 3.64998 30.1 3.64998 30.2 3.54998C30.3 3.54998 30.3 3.44998 30.3 3.34998ZM30.8 4.54998C30.8 4.74998 30.7 4.94998 30.6 5.14998C30.5 5.24998 30.3 5.34998 30.1 5.34998H29.5V2.64998H30.1C30.5 2.64998 30.7 2.84998 30.7 3.34998C30.7 3.44998 30.7 3.54998 30.6 3.64998C30.6 3.74998 30.5 3.84998 30.4 3.84998C30.6 3.94998 30.8 4.24998 30.8 4.54998ZM32.8 5.34998H31.7V2.64998H32.8V3.04998H32.1V3.74998H32.6V4.14998H32.1V4.94998H32.8V5.34998ZM34.7 5.34998H33.7V2.64998H34.1V4.94998H34.7V5.34998ZM45 0.749976H0.4V45.25H45V0.749976ZM0.2 0.349976H45.2H45.4V0.549976V45.45V45.65H45.2H0.2H0V45.45V0.549976V0.349976H0.2ZM6.5 6.84998H38.9V39.25H6.5V6.84998Z" fill="#1D4FA3"/>
</svg>
