<svg width="46" height="62" viewBox="0 0 46 62" fill="none" xmlns="http://www.w3.org/2000/svg">
<g clip-path="url(#clip0_826_4270)">
<path fill-rule="evenodd" clip-rule="evenodd" d="M5.19844 56.7998L5.99844 57.0998C5.89844 57.6998 5.69844 58.0998 5.39844 58.3998C5.09844 58.6998 4.69844 58.7998 4.29844 58.7998C3.69844 58.7998 3.29844 58.5998 2.89844 58.0998C2.49844 57.5998 2.39844 56.9998 2.39844 56.0998C2.39844 55.1998 2.59844 54.4998 2.89844 53.9998C3.29844 53.4998 3.69844 53.2998 4.29844 53.2998C4.79844 53.2998 5.19844 53.4998 5.49844 53.8998C5.69844 54.0998 5.79844 54.4998 5.89844 54.8998L5.09844 55.1998C5.09844 54.8998 4.89844 54.6998 4.79844 54.4998C4.59844 54.2998 4.49844 54.2998 4.19844 54.2998C3.89844 54.2998 3.59844 54.3998 3.39844 54.6998C3.19844 54.9998 3.09844 55.3998 3.09844 56.0998C3.09844 56.7998 3.19844 57.2998 3.39844 57.4998C3.59844 57.7998 3.79844 57.8998 4.09844 57.8998C4.29844 57.8998 4.49844 57.7998 4.69844 57.5998C4.99844 57.4998 5.19844 57.1998 5.19844 56.7998ZM6.79844 56.0998C6.79844 55.5998 6.89844 55.0998 6.99844 54.6998C7.09844 54.3998 7.19844 54.1998 7.39844 53.9998C7.59844 53.7998 7.69844 53.5998 7.89844 53.4998C8.19844 53.3998 8.49844 53.2998 8.79844 53.2998C9.39844 53.2998 9.89844 53.4998 10.2984 53.9998C10.6984 54.4998 10.8984 55.1998 10.8984 55.9998C10.8984 56.8998 10.6984 57.4998 10.2984 57.9998C9.89844 58.4998 9.39844 58.6998 8.79844 58.6998C8.19844 58.6998 7.69844 58.4998 7.29844 57.9998C6.99844 57.5998 6.79844 56.9998 6.79844 56.0998ZM7.69844 56.0998C7.69844 56.6998 7.79844 57.1998 7.99844 57.4998C8.19844 57.7998 8.49844 57.9998 8.79844 57.9998C9.09844 57.9998 9.39844 57.7998 9.59844 57.4998C9.79844 57.1998 9.89844 56.6998 9.89844 56.0998C9.89844 55.4998 9.79844 54.9998 9.59844 54.6998C9.39844 54.3998 9.09844 54.1998 8.79844 54.1998C8.49844 54.1998 8.19844 54.3998 7.99844 54.6998C7.79844 54.9998 7.69844 55.4998 7.69844 56.0998ZM11.6984 58.7998V53.4998H12.9984L13.6984 57.0998L14.3984 53.4998H15.6984V58.7998H14.9984V54.5998L14.1984 58.7998H13.3984L12.5984 54.5998V58.7998H11.6984ZM16.7984 58.7998V53.4998H18.1984C18.6984 53.4998 18.9984 53.4998 19.1984 53.5998C19.3984 53.6998 19.5984 53.8998 19.7984 54.0998C19.9984 54.3998 19.9984 54.6998 19.9984 55.0998C19.9984 55.3998 19.9984 55.6998 19.8984 55.8998C19.7984 56.0998 19.6984 56.2998 19.4984 56.3998C19.3984 56.4998 19.1984 56.5998 19.0984 56.6998C18.8984 56.7998 18.5984 56.7998 18.1984 56.7998H17.6984V58.7998H16.7984ZM17.5984 54.2998V55.7998H18.0984C18.3984 55.7998 18.6984 55.7998 18.7984 55.6998C18.8984 55.5998 18.9984 55.5998 19.0984 55.3998C19.1984 55.2998 19.1984 55.0998 19.1984 54.9998C19.1984 54.7998 19.1984 54.5998 19.0984 54.4998C18.9984 54.3998 18.8984 54.2998 18.7984 54.2998C18.6984 54.2998 18.4984 54.2998 18.1984 54.2998H17.5984ZM20.8984 58.7998V53.4998H21.6984V57.8998H23.7984V58.7998H20.8984ZM24.5984 58.7998V53.4998H25.3984V58.7998H24.5984ZM30.2984 58.7998H29.3984L28.9984 57.4998H27.2984L26.9984 58.7998H26.0984L27.6984 53.4998H28.5984L30.2984 58.7998ZM28.6984 56.5998L28.0984 54.5998L27.4984 56.5998H28.6984ZM30.8984 58.7998V53.4998H31.6984L33.3984 57.0998V53.4998H34.1984V58.7998H33.3984L31.6984 55.2998V58.7998H30.8984ZM37.9984 56.7998L38.7984 57.0998C38.6984 57.6998 38.4984 58.0998 38.1984 58.3998C37.8984 58.6998 37.4984 58.7998 37.0984 58.7998C36.4984 58.7998 36.0984 58.5998 35.6984 58.0998C35.2984 57.5998 35.1984 56.9998 35.1984 56.0998C35.1984 55.1998 35.3984 54.4998 35.6984 53.9998C36.0984 53.4998 36.4984 53.2998 37.0984 53.2998C37.5984 53.2998 37.9984 53.4998 38.2984 53.8998C38.4984 54.0998 38.5984 54.4998 38.6984 54.8998L37.9984 55.0998C37.9984 54.7998 37.7984 54.5998 37.6984 54.3998C37.4984 54.1998 37.3984 54.1998 37.0984 54.1998C36.7984 54.1998 36.4984 54.2998 36.2984 54.5998C36.0984 54.8998 35.9984 55.2998 35.9984 55.9998C35.9984 56.6998 36.0984 57.1998 36.2984 57.3998C36.4984 57.6998 36.6984 57.7998 36.9984 57.7998C37.1984 57.7998 37.3984 57.6998 37.5984 57.4998C37.7984 57.4998 37.9984 57.1998 37.9984 56.7998ZM39.7984 58.7998V53.4998H42.8984V54.3998H40.6984V55.5998H42.7984V56.4998H40.6984V57.8998H42.9984V58.7998H39.7984Z" fill="#1D4FA3"/>
<path fill-rule="evenodd" clip-rule="evenodd" d="M42.7 0.7H2.6C2.1 0.7 1.6 0.9 1.3 1.3C1 1.6 0.7 2.1 0.7 2.6V59.3C0.7 59.8 0.9 60.3 1.3 60.6C1.6 60.9 2.1 61.2 2.6 61.2H42.7C43.2 61.2 43.7 61 44 60.6C44.3 60.3 44.6 59.8 44.6 59.3V2.6C44.6 2.1 44.4 1.6 44 1.3C43.7 1 43.2 0.7 42.7 0.7ZM2.6 0H42.7C43.4 0 44.1 0.3 44.6 0.8C45.1 1.3 45.4 1.9 45.4 2.7V59.4C45.4 60.1 45.1 60.8 44.6 61.3C44.1 61.8 43.5 62.1 42.7 62.1H2.6C1.9 62.1 1.2 61.8 0.7 61.3C0.3 60.8 0 60.1 0 59.4V2.6C0 1.9 0.3 1.2 0.8 0.7C1.3 0.3 1.9 0 2.6 0Z" fill="#1D4FA3"/>
<path d="M42.7016 12.7998H2.60156V50.2998H42.7016V12.7998Z" fill="#1D4FA3"/>
<path fill-rule="evenodd" clip-rule="evenodd" d="M16.5 19.0996L16.9 20.3996H18.4L17.2 21.1996L17.7 22.5996L16.5 21.6996L15.2 22.5996L15.7 21.1996L14.5 20.3996H16L16.5 19.0996Z" fill="#FFF200"/>
<path fill-rule="evenodd" clip-rule="evenodd" d="M28.8984 19.0996L29.3984 20.3996H30.8984L29.6984 21.1996L30.0984 22.5996L28.8984 21.6996L27.6984 22.5996L28.0984 21.1996L26.8984 20.3996H28.3984L28.8984 19.0996Z" fill="#FFF200"/>
<path fill-rule="evenodd" clip-rule="evenodd" d="M11.8008 23.5L12.3008 24.9H13.8008L12.5008 25.7L13.0008 27L11.8008 26.2L10.6008 27L11.0008 25.7L9.80078 24.9H11.3008L11.8008 23.5Z" fill="#FFF200"/>
<path fill-rule="evenodd" clip-rule="evenodd" d="M33.6016 23.5L34.0016 24.9H35.5016L34.3016 25.7L34.8016 27L33.6016 26.2L32.3016 27L32.8016 25.7L31.6016 24.9H33.1016L33.6016 23.5Z" fill="#FFF200"/>
<path fill-rule="evenodd" clip-rule="evenodd" d="M10.1992 29.7998L10.5992 31.1998H12.0992L10.8992 31.9998L11.3992 33.2998L10.1992 32.4998L8.89922 33.2998L9.39922 31.9998L8.19922 31.1998H9.69922L10.1992 29.7998Z" fill="#FFF200"/>
<path fill-rule="evenodd" clip-rule="evenodd" d="M35.1992 29.9004L35.6992 31.2004H37.1992L35.8992 32.1004L36.3992 33.4004L35.1992 32.6004L33.9992 33.4004L34.3992 32.1004L33.1992 31.2004H34.6992L35.1992 29.9004Z" fill="#FFF200"/>
<path fill-rule="evenodd" clip-rule="evenodd" d="M16.5 40.8L16.9 42.2001L18.4 42.1L17.2 43L17.7 44.3L16.5 43.5L15.2 44.3L15.7 43L14.5 42.1L16 42.2001L16.5 40.8Z" fill="#FFF200"/>
<path fill-rule="evenodd" clip-rule="evenodd" d="M28.8984 40.7998L29.3984 42.1998L30.8984 42.0998L29.6984 42.9998L30.0984 44.2998L28.8984 43.4998L27.6984 44.2998L28.0984 42.9998L26.8984 42.0998L28.3984 42.1998L28.8984 40.7998Z" fill="#FFF200"/>
<path fill-rule="evenodd" clip-rule="evenodd" d="M22.6992 42.5L23.0992 43.8H24.6992L23.3992 44.6L23.8992 46L22.6992 45.2L21.4992 46L21.8992 44.6L20.6992 43.8H22.1992L22.6992 42.5Z" fill="#FFF200"/>
<path fill-rule="evenodd" clip-rule="evenodd" d="M11.8008 36.0996L12.3008 37.3996H13.8008L12.5008 38.1996L13.0008 39.4996L11.8008 38.6996L10.6008 39.4996L11.0008 38.1996L9.80078 37.3996H11.3008L11.8008 36.0996Z" fill="#FFF200"/>
<path fill-rule="evenodd" clip-rule="evenodd" d="M33.6016 36.0996L34.0016 37.3996H35.5016L34.3016 38.1996L34.8016 39.4996L33.6016 38.6996L32.3016 39.4996L32.8016 38.1996L31.6016 37.3996H33.1016L33.6016 36.0996Z" fill="#FFF200"/>
<path fill-rule="evenodd" clip-rule="evenodd" d="M22.6992 17.2002L23.0992 18.6002H24.6992L23.3992 19.4002L23.8992 20.7002L22.6992 19.9002L21.4992 20.7002L21.8992 19.4002L20.6992 18.6002H22.1992L22.6992 17.2002Z" fill="#FFF200"/>
<path fill-rule="evenodd" clip-rule="evenodd" d="M4.10156 11.4002V1.8002H7.30156C8.10156 1.8002 8.70156 1.9002 9.00156 2.1002C9.40156 2.3002 9.70156 2.6002 9.90156 3.0002C10.1016 3.4002 10.2016 3.9002 10.2016 4.5002C10.2016 5.2002 10.0016 5.8002 9.70156 6.3002C9.40156 6.8002 8.90156 7.1002 8.30156 7.2002C8.60156 7.4002 8.90156 7.7002 9.10156 8.0002C9.30156 8.3002 9.60156 8.8002 10.0016 9.5002L10.9016 11.4002H9.10156L8.00156 9.3002C7.60156 8.6002 7.30156 8.10019 7.20156 7.9002C7.00156 7.7002 6.90156 7.6002 6.70156 7.5002C6.60156 7.4002 6.30156 7.4002 6.00156 7.4002H5.70156V11.4002H4.10156ZM5.70156 5.9002H6.80156C7.50156 5.9002 8.00156 5.9002 8.20156 5.8002C8.40156 5.7002 8.50156 5.6002 8.60156 5.4002C8.70156 5.2002 8.80156 5.0002 8.80156 4.7002C8.80156 4.4002 8.70156 4.1002 8.60156 3.9002C8.40156 3.7002 8.20156 3.5002 7.90156 3.5002C7.80156 3.5002 7.40156 3.5002 6.80156 3.5002H5.70156V5.9002ZM12.1016 11.4002V1.8002H17.6016V3.4002H13.6016V5.5002H17.3016V7.10019H13.6016V9.7002H17.8016V11.3002H12.1016V11.4002ZM26.1016 11.4002H24.5016L23.9016 9.2002H20.9016L20.3016 11.4002H18.7016L21.6016 1.8002H23.2016L26.1016 11.4002ZM23.4016 7.60019L22.4016 4.1002L21.4016 7.60019H23.4016ZM32.1016 7.9002L33.6016 8.5002C33.4016 9.6002 33.0016 10.3002 32.5016 10.8002C32.0016 11.3002 31.3016 11.6002 30.5016 11.6002C29.5016 11.6002 28.7016 11.2002 28.0016 10.3002C27.4016 9.4002 27.0016 8.2002 27.0016 6.7002C27.0016 5.1002 27.3016 3.9002 28.0016 3.0002C28.6016 2.1002 29.5016 1.7002 30.5016 1.7002C31.4016 1.7002 32.2016 2.0002 32.7016 2.7002C33.0016 3.1002 33.3016 3.7002 33.5016 4.5002L32.0016 5.0002C32.0016 4.4002 31.8016 4.0002 31.5016 3.7002C31.2016 3.4002 30.9016 3.3002 30.5016 3.3002C29.9016 3.3002 29.5016 3.6002 29.1016 4.1002C28.8016 4.6002 28.6016 5.40019 28.6016 6.60019C28.6016 7.80019 28.8016 8.7002 29.1016 9.2002C29.4016 9.7002 29.9016 10.0002 30.4016 10.0002C30.8016 10.0002 31.1016 9.8002 31.4016 9.5002C31.8016 9.1002 32.0016 8.60019 32.1016 7.9002ZM35.2016 11.4002V1.8002H36.7016V5.6002H39.6016V1.8002H41.1016V11.4002H39.6016V7.2002H36.7016V11.4002H35.2016Z" fill="#1D4FA3"/>
</g>
<defs>
<clipPath id="clip0_826_4270">
<rect width="45.4" height="62" fill="white"/>
</clipPath>
</defs>
</svg>
